<svg xmlns="http://www.w3.org/2000/svg" viewBox="0 0 24 14.437"><path d="M19.765 0v.01h1.375A2.87 2.87 0 0 1 24 2.87v8.695a2.87 2.87 0 0 1-2.86 2.86h-1.146v.012H7.266L0 7.218 7.27 0zM7.235 6.816v4.982h1.54V10.43h.98c1.168 0 1.941-.728 1.941-1.836 0-1.056-.72-1.778-1.814-1.778zm1.54 2.424V8.066h.758c.364 0 .654.238.654.572 0 .364-.29.602-.654.602zm0 0Zm8.357-2.424H15.6v2.499l-2.17-2.499h-1.265v4.982h1.54V9.397l2.17 2.401h1.257zm5.072 1.302V6.816h-4.618v1.302h1.54v3.68h1.538v-3.68Zm-13.68-5.48c-.72 0-1.19.387-1.19.958 0 .575.416.788.818.88l.706.145c.324.068.454.184.454.43 0 .296-.246.504-.682.504-.435 0-.76-.203-.836-.62l-.552.117c.082.629.653.962 1.34.962.745 0 1.243-.382 1.243-.991 0-.508-.348-.78-.832-.885l-.701-.15c-.28-.059-.411-.18-.411-.407 0-.285.251-.493.633-.493.387 0 .682.227.74.57l.518-.106c-.116-.556-.59-.914-1.248-.914Zm1.816.068v3.24h.517V4.806h.944c.716 0 1.165-.426 1.165-1.054 0-.62-.45-1.045-1.165-1.045zm.517 1.625V3.175h.944c.406 0 .648.242.648.576 0 .348-.242.58-.648.58zm5.14 1.616-1.428-3.241h-.484l-1.427 3.24h.562l.319-.754h1.577l.32.755zm-1.084-1.229h-1.171l.585-1.379Zm4.156 1.229L17.9 4.65c.614-.034 1.02-.41 1.02-.967 0-.586-.445-.977-1.112-.977h-1.524v3.24h.518v-1.29h.47l1.155 1.29zm-2.268-1.761V3.175h1.006c.358 0 .595.203.595.508 0 .3-.237.503-.595.503zm5.478 1.76-1.727-1.615 1.62-1.625h-.643l-1.417 1.402h-.14V2.706h-.518v3.24h.518V4.584h.179l1.427 1.364z"/></svg>