<?xml version="1.0" encoding="UTF-8"?>
<svg id="a" data-name="Layer 1" xmlns="http://www.w3.org/2000/svg" viewBox="0 0 398.86 178.62">
  <g>
    <path d="M272.83,14.22s1.26,5.33-2.76,6.07c-2.8.5-7.32-2.28-9.59-5.05-2.8-3.41-2.45-6.1-.27-8.49,3.27-3.62,8.88-2.22,8.88-2.22,0,0-10.27-9.01-20.96-1.63-9.53,6.56-6.79,15.5,1.8,23.29,7.75,7.05,1.56,14.78-6.24,13.77-5.35-.68-7.54-4.98-6.25-7.61,1.11-2.25,4.95-3.64,4.95-3.64,0,0-4.41-1.79-9.6.16-4.66,1.76-8.51,5.61-8.2,15.27v44.77s4.82-5.94,10.49-11.99c6.35-6.82,9.24-11.43,15.76-10.89,12.33.76,21.25-4.72,27.31-13.51,11.64-16.9,2.52-35.79-5.3-38.32" style="fill: #e53526;"/>
    <g>
      <path d="M78.99,97.67c-6.12,0-11.37,2.29-14.72,7.64h-.19v-6.31l-12.9,2.3v64.48l13.56,12.07v-35.57h.2c3.34,4.87,8.78,7.45,14.8,7.45,14.52,0,21.69-12.31,21.69-25.51,0-14.04-6.98-26.55-22.45-26.55ZM76.12,139.51c-8.8,0-11.85-7.64-11.85-15.66s2.87-15.96,11.76-15.96,11.84,8.03,11.84,15.96-2.86,15.66-11.75,15.66Z" style="fill: #7f7f7f;"/>
      <path d="M30.09,118.68c-7.64-1.81-15.39-2.48-15.39-7.35,0-4.11,4.49-4.6,7.56-4.6,4.87,0,8.88,1.44,9.27,6.7h12.89c-1.06-12.14-11.08-15.77-21.79-15.77s-21.49,3.24-21.49,15.87c0,8.78,7.73,11.36,15.67,13.18,9.65,2,15.39,3.54,15.39,7.64,0,4.77-5.07,6.3-8.89,6.3-5.25,0-10.42-2.49-10.42-8.32H0c.48,13.1,11.75,17.39,23.21,17.39s22.56-4.2,22.56-17.2c0-9.17-7.75-12.03-15.67-13.86Z" style="fill: #7f7f7f;"/>
      <path d="M151.78,111.7c0-11.84-11.85-14.03-21.7-14.03-11.08,0-22.46,3.92-23.22,16.53h13.57c.48-5.35,3.72-7.46,8.99-7.46,4.77,0,8.78.96,8.78,6.7.57,11.08-32.68-.96-32.86,21.48,0,10.14,7.35,14.82,16.8,14.82,6.12,0,12.34-1.62,16.63-6.1.11,1.61.49,3.24.97,4.77h13.75c-1.23-2-1.71-6.5-1.71-10.98v-25.72ZM138.21,129.3c0,3.05-.38,11.37-10.98,11.37-4.4,0-8.33-1.34-8.33-6.31s3.83-6.51,8.04-7.26c4.2-.77,8.98-.87,11.27-2.88v5.07Z" style="fill: #7f7f7f;"/>
      <path d="M172.55,108.18h-.18v-9.17l-12.9,2.3v47.1h13.56v-22.26c0-8.79,3.35-15.86,13.38-15.86,1.63,0,3.63.2,4.88.48v-12.61c-.96-.28-1.91-.47-2.97-.47-6.78,0-13.18,4.29-15.77,10.51Z" style="fill: #7f7f7f;"/>
      <polygon points="243.24 99 227.19 99 210.09 116.78 210.09 80.18 196.52 87.62 196.52 148.4 210.09 148.4 210.09 131.4 215.35 126.33 228.91 148.4 245.34 148.4 224.61 117.17 243.24 99" style="fill: #7f7f7f;"/>
      <path d="M253.59,95.19v3.81h-4.14l-9.24,9.08h13.38v40.32h13.57v-40.32h9.36v-9.08h-9.36v-2.96c0-4.11,1.44-5.64,5.17-5.64,1.61,0,3.34.09,4.96.29v-10.13c-2.28-.09-4.78-.38-7.16-.38-11.09,0-16.54,6.21-16.54,15.01Z" style="fill: #7f7f7f;"/>
      <path d="M313.1,124.9c0,10.02-3.15,14.14-10.51,14.14-6.39,0-8.68-4-8.68-12.13v-27.9h-13.57v30.39c0,12.23,3.63,20.34,18.05,20.34,5.73,0,11.67-2.58,15.1-8.21h.28v6.88h12.9v-49.4h-13.58v25.89Z" style="fill: #7f7f7f;"/>
      <path d="M362.45,97.67c-5.74,0-11.66,2.58-15.1,8.21h-.28v-6.88h-12.9v49.4h13.58v-25.89c0-10.04,3.14-14.15,10.5-14.15,6.39,0,8.7,4.01,8.7,12.14v27.9h13.57v-30.39c0-12.22-3.63-20.34-18.06-20.34Z" style="fill: #7f7f7f;"/>
      <path d="M392.44,135.9c-3.39,0-6.41,2.44-6.41,6.23s3.02,6.27,6.41,6.27,6.43-2.46,6.43-6.27-3.03-6.23-6.43-6.23ZM392.44,147.06c-2.62,0-4.71-2.07-4.71-4.93s2.08-4.9,4.71-4.9,4.72,2.06,4.72,4.9-2.12,4.93-4.72,4.93Z" style="fill: #7f7f7f;"/>
      <path d="M395.33,140.69c0-1.52-.99-2.07-2.75-2.07h-2.64v7.01h1.39v-2.99h.87l1.71,2.99h1.46l-1.87-3.06c1.02-.08,1.84-.58,1.84-1.87ZM391.33,141.55v-1.84h1.17c.64,0,1.45.14,1.45.87,0,.85-.57.97-1.38.97h-1.24Z" style="fill: #7f7f7f;"/>
    </g>
  </g>
  <g>
    <path d="M79.12,172.94l2.27-.65c.29-.08.59.08.68.37.58,1.74,1.79,2.57,3.33,2.57,1.83,0,2.91-1.21,2.91-2.15,0-.62-.44-1.35-1.59-1.74l-3.83-1.24c-1.53-.5-2.56-1.62-3.03-3.18-.82-2.74.88-5.54,3.86-6.33,2.6-.7,6,.19,6.91,3.39.08.29-.09.59-.37.68l-2.24.69c-.26.08-.55-.04-.67-.29-.54-1.22-1.49-1.52-2.63-1.2-1.24.32-1.74,1.35-1.53,2.09.12.41.47.79.97.94l3.86,1.21c2.33.74,3.77,2.74,3.77,5.07,0,3.12-2.92,5.45-6.42,5.45-3.16,0-5.87-1.81-6.64-5.01-.07-.29.1-.58.39-.66Z" style="fill: #7f7f7f;"/>
    <path d="M99.38,160.66h11.84c.31,0,.56.25.56.56v2.42c0,.31-.25.56-.56.56h-4.15v13.58c0,.31-.25.56-.56.56h-2.42c-.31,0-.56-.25-.56-.56v-13.58h-4.15c-.31,0-.56-.25-.56-.56v-2.42c0-.31.25-.56.56-.56Z" style="fill: #7f7f7f;"/>
    <path d="M127.53,175.38h-6.18l-.9,2.57c-.08.22-.29.37-.53.37h-2.06c-.38,0-.65-.38-.53-.74l5.79-16.55c.08-.22.29-.37.53-.37h1.57c.24,0,.45.15.53.37l5.79,16.55c.13.36-.14.74-.53.74h-2.06c-.24,0-.45-.15-.53-.37l-.9-2.57ZM122.5,172.14h3.89l-1.94-5.6-1.94,5.6Z" style="fill: #7f7f7f;"/>
    <path d="M142.4,171.85v5.92c0,.31-.25.56-.56.56h-2.42c-.31,0-.56-.25-.56-.56v-16.55c0-.31.25-.56.56-.56h5.95c2.77,0,5.27,2.5,5.27,5.6,0,1.97-1.03,3.68-2.47,4.68l3.76,6.56c.21.37-.06.83-.48.83h-2.25c-.2,0-.38-.1-.48-.27l-3.67-6.21h-2.65ZM142.26,164.05v4.42h2.94c1.21,0,2.06-1.06,2.06-2.21s-.97-2.21-2.18-2.21h-2.83Z" style="fill: #7f7f7f;"/>
    <path d="M160.04,160.66h11.84c.31,0,.56.25.56.56v2.42c0,.31-.25.56-.56.56h-4.15v13.58c0,.31-.25.56-.56.56h-2.42c-.31,0-.56-.25-.56-.56v-13.58h-4.15c-.31,0-.56-.25-.56-.56v-2.42c0-.31.25-.56.56-.56Z" style="fill: #7f7f7f;"/>
    <path d="M195.9,172.94l2.27-.65c.29-.08.59.08.68.37.58,1.74,1.79,2.57,3.33,2.57,1.83,0,2.91-1.21,2.91-2.15,0-.62-.44-1.35-1.59-1.74l-3.83-1.24c-1.53-.5-2.56-1.62-3.03-3.18-.82-2.74.88-5.54,3.86-6.33,2.6-.7,6,.19,6.92,3.39.08.29-.09.59-.37.68l-2.24.69c-.26.08-.55-.04-.67-.29-.54-1.22-1.49-1.52-2.63-1.2-1.24.32-1.74,1.35-1.53,2.09.12.41.47.79.97.94l3.86,1.21c2.33.74,3.77,2.74,3.77,5.07,0,3.12-2.92,5.45-6.42,5.45-3.16,0-5.87-1.81-6.64-5.01-.07-.29.1-.58.39-.66Z" style="fill: #7f7f7f;"/>
    <path d="M224.44,160.36c4.89,0,8.83,4.09,8.83,9.13s-3.95,9.13-8.83,9.13-8.83-4.09-8.83-9.13,3.95-9.13,8.83-9.13ZM224.44,175.29c3.06,0,5.57-2.59,5.57-5.8s-2.5-5.8-5.57-5.8-5.57,2.59-5.57,5.8,2.5,5.8,5.57,5.8Z" style="fill: #7f7f7f;"/>
    <path d="M247.84,172.58l-2.79-5.3v10.49c0,.31-.25.56-.56.56h-2.42c-.31,0-.56-.25-.56-.56v-16.55c0-.31.25-.56.56-.56h2.49c.21,0,.4.11.49.3l4.41,8.39,4.41-8.39c.1-.18.29-.3.49-.3h2.49c.31,0,.56.25.56.56v16.55c0,.31-.25.56-.56.56h-2.42c-.31,0-.56-.25-.56-.56v-10.49l-2.79,5.3c-.1.18-.29.3-.49.3h-2.27c-.21,0-.4-.11-.49-.3Z" style="fill: #7f7f7f;"/>
    <path d="M267.4,160.66h9.49c.31,0,.56.25.56.56v2.42c0,.31-.25.56-.56.56h-6.8v3.68h5.92c.31,0,.56.25.56.56v2.13c0,.31-.25.56-.56.56h-5.92v3.68h6.8c.31,0,.56.25.56.56v2.42c0,.31-.25.56-.56.56h-9.49c-.31,0-.56-.25-.56-.56v-16.55c0-.31.25-.56.56-.56Z" style="fill: #7f7f7f;"/>
    <path d="M285.65,160.66h11.84c.31,0,.56.25.56.56v2.42c0,.31-.25.56-.56.56h-4.15v13.58c0,.31-.25.56-.56.56h-2.42c-.31,0-.56-.25-.56-.56v-13.58h-4.15c-.31,0-.56-.25-.56-.56v-2.42c0-.31.25-.56.56-.56Z" style="fill: #7f7f7f;"/>
    <path d="M306.86,160.66h2.42c.31,0,.56.25.56.56v6.51h6.18v-6.51c0-.31.25-.56.56-.56h2.42c.31,0,.56.25.56.56v16.55c0,.31-.25.56-.56.56h-2.42c-.31,0-.56-.25-.56-.56v-6.51h-6.18v6.51c0,.31-.25.56-.56.56h-2.42c-.31,0-.56-.25-.56-.56v-16.55c0-.31.25-.56.56-.56Z" style="fill: #7f7f7f;"/>
    <path d="M329.53,160.66h2.42c.31,0,.56.25.56.56v16.55c0,.31-.25.56-.56.56h-2.42c-.31,0-.56-.25-.56-.56v-16.55c0-.31.25-.56.56-.56Z" style="fill: #7f7f7f;"/>
    <path d="M352.81,178.08l-7.34-11.17v10.87c0,.31-.25.56-.56.56h-2.42c-.31,0-.56-.25-.56-.56v-16.55c0-.31.25-.56.56-.56h2.53c.19,0,.36.09.47.25l7.34,11.17v-10.87c0-.31.25-.56.56-.56h2.42c.31,0,.56.25.56.56v16.55c0,.31-.25.56-.56.56h-2.53c-.19,0-.36-.09-.47-.25Z" style="fill: #7f7f7f;"/>
    <path d="M376.97,171.26h-2.39c-.31,0-.56-.25-.56-.56v-1.83c0-.31.25-.56.56-.56h5.36c.31,0,.56.25.56.56v5.88c0,.12-.04.25-.12.34-1.62,2.1-4.13,3.53-6.95,3.53-4.89,0-8.83-4.09-8.83-9.13s3.95-9.13,8.83-9.13c1.88,0,3.62.62,5.05,1.65.26.19.3.55.11.8l-1.51,1.89c-.18.23-.51.28-.74.12-.82-.58-1.89-.92-2.9-.92-2.83,0-5.3,2.5-5.3,5.6s2.47,5.6,5.3,5.6c1.34,0,2.42-.27,3.29-1.19.16-.17.24-.38.24-.61v-2.03Z" style="fill: #7f7f7f;"/>
  </g>
</svg>