<svg xmlns="http://www.w3.org/2000/svg" width="32" height="32"><defs id="defs1"><style id="style1" type="text/css">.fil1{fill:#e0311d}</style></defs><path id="path3" d="M5.9 4.07h9.9v1.35h-1.15l1 1.07.16.17v.87H8.86c-.39 0-.74.15-1 .38-.23.22-.38.53-.38.86v7.08H4.35V5.5c0-.8.7-1.44 1.55-1.44zm4.8 13.02h1.59v-.81H9.74v5.7h.96v-2.35h1.25v-.82H10.7V17.1zm2.07 4.9h2.55v-.82h-1.59v-4.9h-.96Zm3.95-4.9h1.66v-.81h-2.63v5.7h2.63v-.8h-1.66V19.5h1.32v-.82h-1.32V17.1zm4.6-.81-.75 2.1-.72-2.1h-1l1 2.77-1.07 2.94h.9l.8-2.26.79 2.26h1.01l-1.07-2.94 1-2.77h-.9ZM11.2 12.82h.4v1c0 .38-.17.52-.46.52-.29 0-.47-.14-.47-.53v-2.9c0-.38.18-.52.47-.52s.47.14.47.53v.57h.86v-.52c0-.86-.47-1.35-1.36-1.35-.89 0-1.35.49-1.35 1.35v2.79c0 .86.46 1.35 1.35 1.35.9 0 1.36-.5 1.36-1.35v-1.7H11.2zm3.8 2.23h.93V9.68h-.8v3.21l-.94-3.2h-1.13v5.36h.81v-3.89L15 15.05zm1.48-4.08c0 1.53 1.77 1.74 1.77 2.84 0 .39-.18.53-.47.53-.28 0-.47-.14-.47-.53v-.38h-.85v.33c0 .86.46 1.35 1.35 1.35.89 0 1.35-.5 1.35-1.35 0-1.53-1.77-1.74-1.77-2.84 0-.39.16-.53.45-.53.3 0 .46.14.46.53v.22h.85v-.17c0-.86-.45-1.35-1.33-1.35-.88 0-1.34.49-1.34 1.35zm3.1 0c0 1.53 1.77 1.74 1.77 2.84 0 .39-.18.53-.47.53s-.47-.14-.47-.53v-.38h-.86v.33c0 .86.47 1.35 1.36 1.35.89 0 1.35-.5 1.35-1.35 0-1.53-1.77-1.74-1.77-2.84 0-.39.16-.53.45-.53.29 0 .45.14.45.53v.22h.86v-.17c0-.86-.45-1.35-1.34-1.35-.88 0-1.33.49-1.33 1.35zM17.5 7.53v-.9l.14-.14 1-1.07H17.5V4.07h8.62c.85 0 1.55.65 1.55 1.44v9.17h-3.13v-5.9c0-.34-.14-.65-.39-.87-.25-.23-.6-.38-1-.38H17.5zm7.04 8.62h3.13V26.5c0 .8-.7 1.44-1.55 1.44h-9.88V26.6h1.13l-1-1.06-.13-.14v-.93h6.92c.39 0 .74-.15 1-.38.23-.22.38-.53.38-.86zm-10 8.32v.9l-.16.17-1 1.06h1.17v1.33H5.9c-.85 0-1.55-.65-1.55-1.44V17.3h3.13v5.92c0 .33.15.64.39.86.25.23.6.38 1 .38h5.68Zm8.62-15.86H8.86a.1.1 0 0 0-.06.03.17.17 0 0 0-.06.13v14.46c0 .05.02.1.06.13a.1.1 0 0 0 .06.03h14.3a.1.1 0 0 0 .06-.03.17.17 0 0 0 .06-.13V8.77c0-.05-.02-.1-.06-.13a.1.1 0 0 0-.06-.03z" class="fil1" style="clip-rule:evenodd;fill-rule:evenodd;stroke-width:.00208705;stroke-dasharray:none;image-rendering:optimizeQuality;shape-rendering:geometricPrecision;text-rendering:geometricPrecision"/><path id="path4" d="M23.16 8.61H8.86a.1.1 0 0 0-.06.03.17.17 0 0 0-.06.13v14.46c0 .05.02.1.06.13a.1.1 0 0 0 .06.03h14.3a.1.1 0 0 0 .06-.03.17.17 0 0 0 .06-.13V8.77c0-.05-.02-.1-.06-.13a.1.1 0 0 0-.06-.03zM10.7 17.1h1.59v-.81H9.74v5.7h.96v-2.35h1.25v-.82H10.7V17.1zm2.07 4.9h2.55v-.82h-1.59v-4.9h-.96Zm3.95-4.9h1.66v-.81h-2.63v5.7h2.63v-.8h-1.66V19.5h1.32v-.82h-1.32V17.1zm4.6-.81-.75 2.1-.72-2.1h-1l1 2.77-1.07 2.94h.9l.8-2.26.79 2.26h1.01l-1.07-2.94 1-2.77h-.9ZM11.2 12.82h.4v1c0 .38-.17.52-.46.52-.29 0-.47-.14-.47-.53v-2.9c0-.38.18-.52.47-.52s.47.14.47.53v.57h.86v-.52c0-.86-.47-1.35-1.36-1.35-.89 0-1.35.49-1.35 1.35v2.79c0 .86.46 1.35 1.35 1.35.9 0 1.36-.5 1.36-1.35v-1.7H11.2zm3.8 2.23h.93V9.68h-.8v3.21l-.94-3.2h-1.13v5.36h.81v-3.89L15 15.05zm1.48-4.08c0 1.53 1.77 1.74 1.77 2.84 0 .39-.18.53-.47.53-.28 0-.47-.14-.47-.53v-.38h-.85v.33c0 .86.46 1.35 1.35 1.35.89 0 1.35-.5 1.35-1.35 0-1.53-1.77-1.74-1.77-2.84 0-.39.16-.53.45-.53.3 0 .46.14.46.53v.22h.85v-.17c0-.86-.45-1.35-1.33-1.35-.88 0-1.34.49-1.34 1.35zm3.1 0c0 1.53 1.77 1.74 1.77 2.84 0 .39-.18.53-.47.53s-.47-.14-.47-.53v-.38h-.86v.33c0 .86.47 1.35 1.36 1.35.89 0 1.35-.5 1.35-1.35 0-1.53-1.77-1.74-1.77-2.84 0-.39.16-.53.45-.53.29 0 .45.14.45.53v.22h.86v-.17c0-.86-.45-1.35-1.34-1.35-.88 0-1.33.49-1.33 1.35z" class="fil1" style="clip-rule:evenodd;fill-rule:evenodd;stroke-width:.00208705;stroke-dasharray:none;image-rendering:optimizeQuality;shape-rendering:geometricPrecision;text-rendering:geometricPrecision"/><path id="polygon5" d="M17.65 24.47v1.1H16.4l-.02-.03-1-1.06-1 1.06-.02.02h-.94v-1.09ZM14.7 7.53h1.92l-.97-1.04-.06-.06h-.89zm1.96 0h2.27v-1.1H17.7l-.06.06zm-2.11 20.4h1.7v2.62h14.07v-14.4h-2.63V14.7h2.72c.46 0 .86.17 1.15.44.28.25.45.6.45.98v14.46c0 .38-.17.72-.45.98-.29.27-.7.44-1.15.44H16.15c-.45 0-.86-.17-1.15-.44-.28-.26-.45-.6-.45-.98v-2.65zM1.61 0h14.3c.45 0 .85.17 1.15.44.27.26.44.6.44.98V4.1h-1.69V1.45H1.7v14.4h2.67v1.45H1.6c-.46 0-.86-.17-1.15-.44-.28-.25-.45-.6-.45-.98V1.42c0-.38.17-.72.45-.98C.75.17 1.16 0 1.6 0Z" class="fil1" style="display:inline;fill:#e0311d;stroke-width:.00208704"/></svg>