<svg xmlns="http://www.w3.org/2000/svg" xml:space="preserve" width="266.133" height="160.086" style="shape-rendering:geometricPrecision;text-rendering:geometricPrecision;image-rendering:optimizeQuality;fill-rule:evenodd;clip-rule:evenodd" viewBox="0 0 1901.01 1143.51"><path d="M494.51 141.17h1339.71v889.81H494.51z" style="stroke:#fafafa;stroke-width:4.76;stroke-miterlimit:2.61313;fill:#fafafa"/><path d="m1565.56 0 .02.76h108.89c124.6 0 226.54 101.93 226.54 226.54v688.73c0 124.6-101.94 226.53-226.54 226.53h-90.8l.02.96H575.49L-.01 571.76 575.83 0h989.72zm-992.5 539.91v394.64h121.92V826.17h77.75c92.48 0 153.73-57.72 153.73-145.48 0-83.64-57.13-140.77-143.71-140.77H573.07v-.01zm121.92 192.02v-93.06h60.08c28.86 0 51.84 18.85 51.84 45.35 0 28.86-22.97 47.71-51.84 47.71zv-.01zm662.04-192.02h-121.33v197.91L1063.7 539.91H963.57v394.64h121.92V744.3l171.99 190.25h99.54zm401.71 103.08V539.91h-365.77v103.08h121.92v291.56h121.92V642.99zM675.18 208.96c-57.09 0-94.26 30.65-94.26 75.86 0 45.6 32.95 62.46 64.75 69.73l55.94 11.49c25.66 5.36 36.01 14.56 36.01 34.1 0 23.37-19.54 39.85-54.02 39.85s-60.16-16.09-66.29-49.04l-43.68 9.2c6.51 49.81 51.72 76.25 106.13 76.25 59 0 98.47-30.27 98.47-78.55 0-40.23-27.59-61.69-65.9-70.12l-55.56-11.88c-22.22-4.6-32.57-14.18-32.57-32.18 0-22.61 19.92-39.08 50.2-39.08 30.65 0 54.02 18 58.62 45.21l41-8.43c-9.2-44.06-46.75-72.42-98.85-72.42zm143.81 5.36v256.71h41V380.6h74.72c56.71 0 92.34-33.71 92.34-83.52 0-49.04-35.63-82.76-92.34-82.76H819zm41 128.74v-91.58h74.72c32.18 0 51.34 19.16 51.34 45.6 0 27.58-19.16 45.98-51.34 45.98zm407.04 127.97L1154 214.32h-38.31l-113.03 256.71h44.44l25.29-59.77h124.91l25.29 59.77h44.45zm-85.83-97.32h-92.72l46.36-109.2zm329.26 97.32-92.72-102.69c48.66-2.68 80.84-32.56 80.84-76.63 0-46.36-35.25-77.39-88.12-77.39h-120.69v256.71h41v-102.3h37.17l91.57 102.3h50.96zm-179.7-139.47v-80.08h79.7c28.35 0 47.13 16.1 47.13 40.23 0 23.76-18.77 39.85-47.13 39.85zm433.94 139.47-136.78-127.97 128.35-128.74h-50.96l-112.26 111.11h-11.11V214.32h-41v256.71h41V362.98h14.18l113.03 108.05h55.56z" style="fill:#e0311d"/></svg>