<svg xmlns="http://www.w3.org/2000/svg" xml:space="preserve" width="1117.451" height="160.388" style="shape-rendering:geometricPrecision;text-rendering:geometricPrecision;image-rendering:optimizeQuality;fill-rule:evenodd;clip-rule:evenodd" viewBox="0 0 33128.05 4754.89"><defs><style>.fil0{fill:#4c4b4d;fill-rule:nonzero}</style></defs><g id="Layer_x0020_1"><path d="M1679.88 160.39c-944.54 0-1559.44 507.13-1559.44 1255.15 0 754.36 545.17 1033.29 1071.33 1153.73l925.52 190.18c424.72 88.74 595.87 240.88 595.87 564.18 0 386.69-323.29 659.27-893.82 659.27s-995.25-266.25-1096.67-811.41L0 3323.63c107.77 824.09 855.79 1261.49 1755.95 1261.49 976.23 0 1629.16-500.8 1629.16-1299.53 0-665.61-456.42-1020.6-1090.33-1160.07l-919.18-196.51c-367.67-76.07-538.83-234.55-538.83-532.49 0-374.02 329.63-646.6 830.42-646.6 507.13 0 893.82 297.94 969.89 748.02l678.29-139.47c-152.14-729-773.38-1198.1-1635.5-1198.1zM4059.21 249.14v4247.23h678.29V3000.33h1236.14c938.19 0 1527.73-557.84 1527.73-1381.93 0-811.41-589.54-1369.25-1527.73-1369.25H4059.21zM4737.5 2379.1V864.04h1236.14c532.49 0 849.45 316.95 849.45 754.35 0 456.42-316.96 760.71-849.45 760.71zM11471.9 4496.37 9601.85 249.14h-633.91L7097.89 4496.37h735.34l418.39-988.9h2066.56l418.39 988.9h735.34zm-1419.96-1610.14H8517.86l767.05-1806.66 767.04 1806.66zM15499.49 4496.37l-1534.07-1698.9c805.08-44.37 1337.56-538.83 1337.56-1267.82 0-767.05-583.2-1280.51-1458-1280.51h-1996.84v4247.23h678.29V2803.82h614.9l1515.06 1692.55h843.11zm-2973.06-2307.45V864.04h1318.55c469.09 0 779.71 266.24 779.71 665.61 0 393.02-310.62 659.27-779.71 659.27zM19705.95 4496.37 17442.87 2379.1 19566.5 249.14h-843.11l-1857.38 1838.35h-183.83V249.14h-678.3v4247.23h678.3V2708.73h234.55l1870.05 1787.64z" class="fil0"/><path d="M21189.57 4754.84h10543.64l.07-3.14h452.8c518.1 0 941.97-423.87 941.97-941.97V945.94c0-518.1-423.87-941.96-941.97-941.96h-377.54l.07-3.98h-10797l-2377.4 2377.43 2555.45 2377.44-.08-.03zm.57-4219.71V4285.2h1158.58V3255.33h738.8c878.78 0 1460.86-548.51 1460.86-1382.46 0-794.79-542.93-1337.69-1365.65-1337.69h-1992.56l-.02-.06zm1158.58 1824.67v-884.31h570.91c274.25 0 492.56 179.12 492.56 430.98 0 274.25-218.25 453.37-492.56 453.37h-570.91zm6291.16-1824.67h-1152.99v1880.62L25852.54 535.13h-951.48V4285.2h1158.58V2477.34l1634.33 1807.86h945.9V535.13zm3817.25 979.49V535.11h-3475.82v979.51h1158.61v2770.56h1158.58V1514.62h1158.63" style="fill:#e0311d"/></g></svg>