<svg xmlns="http://www.w3.org/2000/svg" viewBox="0 0 167.21 24"><path fill="#a5a5a5" fill-rule="evenodd" d="M8.48.81C3.71.81.61 3.37.61 7.14s2.75 5.22 5.41 5.82l4.67.96c2.14.45 3.01 1.22 3.01 2.85 0 1.95-1.63 3.33-4.51 3.33S4.17 18.76 3.66 16l-3.65.77c.54 4.16 4.32 6.37 8.86 6.37 4.93 0 8.22-2.53 8.22-6.56 0-3.36-2.3-5.15-5.5-5.85l-4.64-.99c-1.86-.38-2.72-1.18-2.72-2.69 0-1.89 1.66-3.26 4.19-3.26s4.51 1.5 4.9 3.78l3.42-.7C15.97 3.19 12.84.82 8.49.82Zm12.01.45V22.7h3.42v-7.55h6.24c4.74 0 7.71-2.82 7.71-6.98s-2.97-6.91-7.71-6.91zm3.42 10.75V4.36h6.24c2.69 0 4.29 1.6 4.29 3.81s-1.6 3.84-4.29 3.84zM57.9 22.69 48.46 1.26h-3.2L35.82 22.7h3.71l2.11-4.99h10.43l2.11 4.99h3.71Zm-7.16-8.12H43l3.87-9.12zm27.49 8.12-7.74-8.57c4.06-.22 6.75-2.72 6.75-6.4 0-3.87-2.94-6.46-7.36-6.46H59.8V22.7h3.42v-8.54h3.1l7.65 8.54h4.26Zm-15-11.64V4.36h6.66c2.37 0 3.93 1.34 3.93 3.36s-1.57 3.33-3.93 3.33zM85.43 13.68l9.44 9.03h4.64L88.08 12.02 98.8 1.26h-4.26l-9.38 9.28h-.93V1.26H80.8v21.45h3.43v-9.03h1.18Z"/><path fill="#df3426" fill-rule="evenodd" d="M106.95 24h53.22v-.02h2.29c2.62 0 4.75-2.13 4.75-4.75V4.78a4.77 4.77 0 0 0-4.75-4.76h-1.91V0h-54.5l-12 12zm.01-21.3v18.93h5.85v-5.2h3.73c4.43 0 7.37-2.77 7.37-6.98s-2.74-6.75-6.89-6.75zm5.84 9.21V7.45h2.88c1.38 0 2.49.91 2.49 2.18 0 1.38-1.1 2.29-2.49 2.29h-2.88Zm31.76-9.21h-5.82v9.49l-8.25-9.49h-4.8v18.93h5.85v-9.12l8.25 9.12h4.77zm19.27 4.94V2.7h-17.54v4.94h5.85v13.98h5.85V7.64h5.85Z"/></svg>