%TF.GenerationSoftware,KiCad,Pcbnew,9.0.5*%
%TF.CreationDate,2025-10-20T14:15:31+01:00*%
%TF.ProjectId,SparkFun_IM19_IMU_Breakout_panelized,53706172-6b46-4756-9e5f-494d31395f49,v10*%
%TF.SameCoordinates,Original*%
%TF.FileFunction,Soldermask,Bot*%
%TF.FilePolarity,Negative*%
%FSLAX46Y46*%
G04 Gerber Fmt 4.6, Leading zero omitted, Abs format (unit mm)*
G04 Created by KiCad (PCBNEW 9.0.5) date 2025-10-20 14:15:31*
%MOMM*%
%LPD*%
G01*
G04 APERTURE LIST*
%TA.AperFunction,Profile*%
%ADD10C,0.100000*%
%TD*%
%ADD11C,0.250000*%
%ADD12C,0.500000*%
G04 APERTURE END LIST*
D10*
X-8120000Y-500000D02*
X-8120000Y87360000D01*
X146280000Y-500000D02*
X-8120000Y-500000D01*
X146280000Y87360000D02*
X146280000Y-500000D01*
X-8120000Y87360000D02*
X146280000Y87360000D01*
X-14470000Y-6850000D02*
X-14470000Y93710000D01*
X152630000Y-6850000D02*
X-14470000Y-6850000D01*
X152630000Y93710000D02*
X152630000Y-6850000D01*
X-14470000Y93710000D02*
X152630000Y93710000D01*
X102600000Y86860000D02*
X145780000Y86860000D01*
X145780000Y43680000D01*
X102600000Y43680000D01*
X102600000Y86860000D01*
X102600000Y43180000D02*
X145780000Y43180000D01*
X145780000Y0D01*
X102600000Y0D01*
X102600000Y43180000D01*
X51300000Y86860000D02*
X94480000Y86860000D01*
X94480000Y43680000D01*
X51300000Y43680000D01*
X51300000Y86860000D01*
X51300000Y43180000D02*
X94480000Y43180000D01*
X94480000Y0D01*
X51300000Y0D01*
X51300000Y43180000D01*
X0Y86860000D02*
X43180000Y86860000D01*
X43180000Y43680000D01*
X0Y43680000D01*
X0Y86860000D01*
X0Y43180000D02*
X43180000Y43180000D01*
X43180000Y0D01*
X0Y0D01*
X0Y43180000D01*
D11*
X99452238Y36668095D02*
X98499857Y36001428D01*
X99452238Y35525238D02*
X97452238Y35525238D01*
X97452238Y35525238D02*
X97452238Y36287143D01*
X97452238Y36287143D02*
X97547476Y36477619D01*
X97547476Y36477619D02*
X97642714Y36572857D01*
X97642714Y36572857D02*
X97833190Y36668095D01*
X97833190Y36668095D02*
X98118904Y36668095D01*
X98118904Y36668095D02*
X98309380Y36572857D01*
X98309380Y36572857D02*
X98404619Y36477619D01*
X98404619Y36477619D02*
X98499857Y36287143D01*
X98499857Y36287143D02*
X98499857Y35525238D01*
X97452238Y37906190D02*
X97452238Y38287143D01*
X97452238Y38287143D02*
X97547476Y38477619D01*
X97547476Y38477619D02*
X97737952Y38668095D01*
X97737952Y38668095D02*
X98118904Y38763333D01*
X98118904Y38763333D02*
X98785571Y38763333D01*
X98785571Y38763333D02*
X99166523Y38668095D01*
X99166523Y38668095D02*
X99357000Y38477619D01*
X99357000Y38477619D02*
X99452238Y38287143D01*
X99452238Y38287143D02*
X99452238Y37906190D01*
X99452238Y37906190D02*
X99357000Y37715714D01*
X99357000Y37715714D02*
X99166523Y37525238D01*
X99166523Y37525238D02*
X98785571Y37430000D01*
X98785571Y37430000D02*
X98118904Y37430000D01*
X98118904Y37430000D02*
X97737952Y37525238D01*
X97737952Y37525238D02*
X97547476Y37715714D01*
X97547476Y37715714D02*
X97452238Y37906190D01*
X97452238Y39620476D02*
X99071285Y39620476D01*
X99071285Y39620476D02*
X99261761Y39715714D01*
X99261761Y39715714D02*
X99357000Y39810952D01*
X99357000Y39810952D02*
X99452238Y40001428D01*
X99452238Y40001428D02*
X99452238Y40382381D01*
X99452238Y40382381D02*
X99357000Y40572857D01*
X99357000Y40572857D02*
X99261761Y40668095D01*
X99261761Y40668095D02*
X99071285Y40763333D01*
X99071285Y40763333D02*
X97452238Y40763333D01*
X97452238Y41430000D02*
X97452238Y42572857D01*
X99452238Y42001428D02*
X97452238Y42001428D01*
X98404619Y43239524D02*
X98404619Y43906191D01*
X99452238Y44191905D02*
X99452238Y43239524D01*
X99452238Y43239524D02*
X97452238Y43239524D01*
X97452238Y43239524D02*
X97452238Y44191905D01*
X97452238Y46953810D02*
X97452238Y47334763D01*
X97452238Y47334763D02*
X97547476Y47525239D01*
X97547476Y47525239D02*
X97737952Y47715715D01*
X97737952Y47715715D02*
X98118904Y47810953D01*
X98118904Y47810953D02*
X98785571Y47810953D01*
X98785571Y47810953D02*
X99166523Y47715715D01*
X99166523Y47715715D02*
X99357000Y47525239D01*
X99357000Y47525239D02*
X99452238Y47334763D01*
X99452238Y47334763D02*
X99452238Y46953810D01*
X99452238Y46953810D02*
X99357000Y46763334D01*
X99357000Y46763334D02*
X99166523Y46572858D01*
X99166523Y46572858D02*
X98785571Y46477620D01*
X98785571Y46477620D02*
X98118904Y46477620D01*
X98118904Y46477620D02*
X97737952Y46572858D01*
X97737952Y46572858D02*
X97547476Y46763334D01*
X97547476Y46763334D02*
X97452238Y46953810D01*
X97452238Y48668096D02*
X99071285Y48668096D01*
X99071285Y48668096D02*
X99261761Y48763334D01*
X99261761Y48763334D02*
X99357000Y48858572D01*
X99357000Y48858572D02*
X99452238Y49049048D01*
X99452238Y49049048D02*
X99452238Y49430001D01*
X99452238Y49430001D02*
X99357000Y49620477D01*
X99357000Y49620477D02*
X99261761Y49715715D01*
X99261761Y49715715D02*
X99071285Y49810953D01*
X99071285Y49810953D02*
X97452238Y49810953D01*
X97452238Y50477620D02*
X97452238Y51620477D01*
X99452238Y51049048D02*
X97452238Y51049048D01*
X48152238Y36668095D02*
X47199857Y36001428D01*
X48152238Y35525238D02*
X46152238Y35525238D01*
X46152238Y35525238D02*
X46152238Y36287143D01*
X46152238Y36287143D02*
X46247476Y36477619D01*
X46247476Y36477619D02*
X46342714Y36572857D01*
X46342714Y36572857D02*
X46533190Y36668095D01*
X46533190Y36668095D02*
X46818904Y36668095D01*
X46818904Y36668095D02*
X47009380Y36572857D01*
X47009380Y36572857D02*
X47104619Y36477619D01*
X47104619Y36477619D02*
X47199857Y36287143D01*
X47199857Y36287143D02*
X47199857Y35525238D01*
X46152238Y37906190D02*
X46152238Y38287143D01*
X46152238Y38287143D02*
X46247476Y38477619D01*
X46247476Y38477619D02*
X46437952Y38668095D01*
X46437952Y38668095D02*
X46818904Y38763333D01*
X46818904Y38763333D02*
X47485571Y38763333D01*
X47485571Y38763333D02*
X47866523Y38668095D01*
X47866523Y38668095D02*
X48057000Y38477619D01*
X48057000Y38477619D02*
X48152238Y38287143D01*
X48152238Y38287143D02*
X48152238Y37906190D01*
X48152238Y37906190D02*
X48057000Y37715714D01*
X48057000Y37715714D02*
X47866523Y37525238D01*
X47866523Y37525238D02*
X47485571Y37430000D01*
X47485571Y37430000D02*
X46818904Y37430000D01*
X46818904Y37430000D02*
X46437952Y37525238D01*
X46437952Y37525238D02*
X46247476Y37715714D01*
X46247476Y37715714D02*
X46152238Y37906190D01*
X46152238Y39620476D02*
X47771285Y39620476D01*
X47771285Y39620476D02*
X47961761Y39715714D01*
X47961761Y39715714D02*
X48057000Y39810952D01*
X48057000Y39810952D02*
X48152238Y40001428D01*
X48152238Y40001428D02*
X48152238Y40382381D01*
X48152238Y40382381D02*
X48057000Y40572857D01*
X48057000Y40572857D02*
X47961761Y40668095D01*
X47961761Y40668095D02*
X47771285Y40763333D01*
X47771285Y40763333D02*
X46152238Y40763333D01*
X46152238Y41430000D02*
X46152238Y42572857D01*
X48152238Y42001428D02*
X46152238Y42001428D01*
X47104619Y43239524D02*
X47104619Y43906191D01*
X48152238Y44191905D02*
X48152238Y43239524D01*
X48152238Y43239524D02*
X46152238Y43239524D01*
X46152238Y43239524D02*
X46152238Y44191905D01*
X46152238Y46953810D02*
X46152238Y47334763D01*
X46152238Y47334763D02*
X46247476Y47525239D01*
X46247476Y47525239D02*
X46437952Y47715715D01*
X46437952Y47715715D02*
X46818904Y47810953D01*
X46818904Y47810953D02*
X47485571Y47810953D01*
X47485571Y47810953D02*
X47866523Y47715715D01*
X47866523Y47715715D02*
X48057000Y47525239D01*
X48057000Y47525239D02*
X48152238Y47334763D01*
X48152238Y47334763D02*
X48152238Y46953810D01*
X48152238Y46953810D02*
X48057000Y46763334D01*
X48057000Y46763334D02*
X47866523Y46572858D01*
X47866523Y46572858D02*
X47485571Y46477620D01*
X47485571Y46477620D02*
X46818904Y46477620D01*
X46818904Y46477620D02*
X46437952Y46572858D01*
X46437952Y46572858D02*
X46247476Y46763334D01*
X46247476Y46763334D02*
X46152238Y46953810D01*
X46152238Y48668096D02*
X47771285Y48668096D01*
X47771285Y48668096D02*
X47961761Y48763334D01*
X47961761Y48763334D02*
X48057000Y48858572D01*
X48057000Y48858572D02*
X48152238Y49049048D01*
X48152238Y49049048D02*
X48152238Y49430001D01*
X48152238Y49430001D02*
X48057000Y49620477D01*
X48057000Y49620477D02*
X47961761Y49715715D01*
X47961761Y49715715D02*
X47771285Y49810953D01*
X47771285Y49810953D02*
X46152238Y49810953D01*
X46152238Y50477620D02*
X46152238Y51620477D01*
X48152238Y51049048D02*
X46152238Y51049048D01*
X-3147762Y36668095D02*
X-4100143Y36001428D01*
X-3147762Y35525238D02*
X-5147762Y35525238D01*
X-5147762Y35525238D02*
X-5147762Y36287143D01*
X-5147762Y36287143D02*
X-5052524Y36477619D01*
X-5052524Y36477619D02*
X-4957286Y36572857D01*
X-4957286Y36572857D02*
X-4766810Y36668095D01*
X-4766810Y36668095D02*
X-4481096Y36668095D01*
X-4481096Y36668095D02*
X-4290620Y36572857D01*
X-4290620Y36572857D02*
X-4195381Y36477619D01*
X-4195381Y36477619D02*
X-4100143Y36287143D01*
X-4100143Y36287143D02*
X-4100143Y35525238D01*
X-5147762Y37906190D02*
X-5147762Y38287143D01*
X-5147762Y38287143D02*
X-5052524Y38477619D01*
X-5052524Y38477619D02*
X-4862048Y38668095D01*
X-4862048Y38668095D02*
X-4481096Y38763333D01*
X-4481096Y38763333D02*
X-3814429Y38763333D01*
X-3814429Y38763333D02*
X-3433477Y38668095D01*
X-3433477Y38668095D02*
X-3243000Y38477619D01*
X-3243000Y38477619D02*
X-3147762Y38287143D01*
X-3147762Y38287143D02*
X-3147762Y37906190D01*
X-3147762Y37906190D02*
X-3243000Y37715714D01*
X-3243000Y37715714D02*
X-3433477Y37525238D01*
X-3433477Y37525238D02*
X-3814429Y37430000D01*
X-3814429Y37430000D02*
X-4481096Y37430000D01*
X-4481096Y37430000D02*
X-4862048Y37525238D01*
X-4862048Y37525238D02*
X-5052524Y37715714D01*
X-5052524Y37715714D02*
X-5147762Y37906190D01*
X-5147762Y39620476D02*
X-3528715Y39620476D01*
X-3528715Y39620476D02*
X-3338239Y39715714D01*
X-3338239Y39715714D02*
X-3243000Y39810952D01*
X-3243000Y39810952D02*
X-3147762Y40001428D01*
X-3147762Y40001428D02*
X-3147762Y40382381D01*
X-3147762Y40382381D02*
X-3243000Y40572857D01*
X-3243000Y40572857D02*
X-3338239Y40668095D01*
X-3338239Y40668095D02*
X-3528715Y40763333D01*
X-3528715Y40763333D02*
X-5147762Y40763333D01*
X-5147762Y41430000D02*
X-5147762Y42572857D01*
X-3147762Y42001428D02*
X-5147762Y42001428D01*
X-4195381Y43239524D02*
X-4195381Y43906191D01*
X-3147762Y44191905D02*
X-3147762Y43239524D01*
X-3147762Y43239524D02*
X-5147762Y43239524D01*
X-5147762Y43239524D02*
X-5147762Y44191905D01*
X-5147762Y46953810D02*
X-5147762Y47334763D01*
X-5147762Y47334763D02*
X-5052524Y47525239D01*
X-5052524Y47525239D02*
X-4862048Y47715715D01*
X-4862048Y47715715D02*
X-4481096Y47810953D01*
X-4481096Y47810953D02*
X-3814429Y47810953D01*
X-3814429Y47810953D02*
X-3433477Y47715715D01*
X-3433477Y47715715D02*
X-3243000Y47525239D01*
X-3243000Y47525239D02*
X-3147762Y47334763D01*
X-3147762Y47334763D02*
X-3147762Y46953810D01*
X-3147762Y46953810D02*
X-3243000Y46763334D01*
X-3243000Y46763334D02*
X-3433477Y46572858D01*
X-3433477Y46572858D02*
X-3814429Y46477620D01*
X-3814429Y46477620D02*
X-4481096Y46477620D01*
X-4481096Y46477620D02*
X-4862048Y46572858D01*
X-4862048Y46572858D02*
X-5052524Y46763334D01*
X-5052524Y46763334D02*
X-5147762Y46953810D01*
X-5147762Y48668096D02*
X-3528715Y48668096D01*
X-3528715Y48668096D02*
X-3338239Y48763334D01*
X-3338239Y48763334D02*
X-3243000Y48858572D01*
X-3243000Y48858572D02*
X-3147762Y49049048D01*
X-3147762Y49049048D02*
X-3147762Y49430001D01*
X-3147762Y49430001D02*
X-3243000Y49620477D01*
X-3243000Y49620477D02*
X-3338239Y49715715D01*
X-3338239Y49715715D02*
X-3528715Y49810953D01*
X-3528715Y49810953D02*
X-5147762Y49810953D01*
X-5147762Y50477620D02*
X-5147762Y51620477D01*
X-3147762Y51049048D02*
X-5147762Y51049048D01*
X-30693997Y837762D02*
X-30027331Y-1162238D01*
X-30027331Y-1162238D02*
X-29360664Y837762D01*
X-28693997Y-400333D02*
X-27170187Y-400333D01*
X-26313045Y-1067000D02*
X-26027331Y-1162238D01*
X-26027331Y-1162238D02*
X-25551140Y-1162238D01*
X-25551140Y-1162238D02*
X-25360664Y-1067000D01*
X-25360664Y-1067000D02*
X-25265426Y-971761D01*
X-25265426Y-971761D02*
X-25170188Y-781285D01*
X-25170188Y-781285D02*
X-25170188Y-590809D01*
X-25170188Y-590809D02*
X-25265426Y-400333D01*
X-25265426Y-400333D02*
X-25360664Y-305095D01*
X-25360664Y-305095D02*
X-25551140Y-209857D01*
X-25551140Y-209857D02*
X-25932093Y-114619D01*
X-25932093Y-114619D02*
X-26122569Y-19380D01*
X-26122569Y-19380D02*
X-26217807Y75858D01*
X-26217807Y75858D02*
X-26313045Y266334D01*
X-26313045Y266334D02*
X-26313045Y456810D01*
X-26313045Y456810D02*
X-26217807Y647286D01*
X-26217807Y647286D02*
X-26122569Y742524D01*
X-26122569Y742524D02*
X-25932093Y837762D01*
X-25932093Y837762D02*
X-25455902Y837762D01*
X-25455902Y837762D02*
X-25170188Y742524D01*
X-23170188Y-971761D02*
X-23265426Y-1067000D01*
X-23265426Y-1067000D02*
X-23551140Y-1162238D01*
X-23551140Y-1162238D02*
X-23741616Y-1162238D01*
X-23741616Y-1162238D02*
X-24027331Y-1067000D01*
X-24027331Y-1067000D02*
X-24217807Y-876523D01*
X-24217807Y-876523D02*
X-24313045Y-686047D01*
X-24313045Y-686047D02*
X-24408283Y-305095D01*
X-24408283Y-305095D02*
X-24408283Y-19380D01*
X-24408283Y-19380D02*
X-24313045Y361572D01*
X-24313045Y361572D02*
X-24217807Y552048D01*
X-24217807Y552048D02*
X-24027331Y742524D01*
X-24027331Y742524D02*
X-23741616Y837762D01*
X-23741616Y837762D02*
X-23551140Y837762D01*
X-23551140Y837762D02*
X-23265426Y742524D01*
X-23265426Y742524D02*
X-23170188Y647286D01*
X-21932093Y837762D02*
X-21551140Y837762D01*
X-21551140Y837762D02*
X-21360664Y742524D01*
X-21360664Y742524D02*
X-21170188Y552048D01*
X-21170188Y552048D02*
X-21074950Y171096D01*
X-21074950Y171096D02*
X-21074950Y-495571D01*
X-21074950Y-495571D02*
X-21170188Y-876523D01*
X-21170188Y-876523D02*
X-21360664Y-1067000D01*
X-21360664Y-1067000D02*
X-21551140Y-1162238D01*
X-21551140Y-1162238D02*
X-21932093Y-1162238D01*
X-21932093Y-1162238D02*
X-22122569Y-1067000D01*
X-22122569Y-1067000D02*
X-22313045Y-876523D01*
X-22313045Y-876523D02*
X-22408283Y-495571D01*
X-22408283Y-495571D02*
X-22408283Y171096D01*
X-22408283Y171096D02*
X-22313045Y552048D01*
X-22313045Y552048D02*
X-22122569Y742524D01*
X-22122569Y742524D02*
X-21932093Y837762D01*
X-19074950Y-1162238D02*
X-19741617Y-209857D01*
X-20217807Y-1162238D02*
X-20217807Y837762D01*
X-20217807Y837762D02*
X-19455902Y837762D01*
X-19455902Y837762D02*
X-19265426Y742524D01*
X-19265426Y742524D02*
X-19170188Y647286D01*
X-19170188Y647286D02*
X-19074950Y456810D01*
X-19074950Y456810D02*
X-19074950Y171096D01*
X-19074950Y171096D02*
X-19170188Y-19380D01*
X-19170188Y-19380D02*
X-19265426Y-114619D01*
X-19265426Y-114619D02*
X-19455902Y-209857D01*
X-19455902Y-209857D02*
X-20217807Y-209857D01*
X-18217807Y-114619D02*
X-17551140Y-114619D01*
X-17265426Y-1162238D02*
X-18217807Y-1162238D01*
X-18217807Y-1162238D02*
X-18217807Y837762D01*
X-18217807Y837762D02*
X-17265426Y837762D01*
D12*
X-14720000Y-250000D02*
X152880000Y-250000D01*
D11*
X-30693997Y44517762D02*
X-30027331Y42517762D01*
X-30027331Y42517762D02*
X-29360664Y44517762D01*
X-28693997Y43279667D02*
X-27170187Y43279667D01*
X-26313045Y42613000D02*
X-26027331Y42517762D01*
X-26027331Y42517762D02*
X-25551140Y42517762D01*
X-25551140Y42517762D02*
X-25360664Y42613000D01*
X-25360664Y42613000D02*
X-25265426Y42708239D01*
X-25265426Y42708239D02*
X-25170188Y42898715D01*
X-25170188Y42898715D02*
X-25170188Y43089191D01*
X-25170188Y43089191D02*
X-25265426Y43279667D01*
X-25265426Y43279667D02*
X-25360664Y43374905D01*
X-25360664Y43374905D02*
X-25551140Y43470143D01*
X-25551140Y43470143D02*
X-25932093Y43565381D01*
X-25932093Y43565381D02*
X-26122569Y43660620D01*
X-26122569Y43660620D02*
X-26217807Y43755858D01*
X-26217807Y43755858D02*
X-26313045Y43946334D01*
X-26313045Y43946334D02*
X-26313045Y44136810D01*
X-26313045Y44136810D02*
X-26217807Y44327286D01*
X-26217807Y44327286D02*
X-26122569Y44422524D01*
X-26122569Y44422524D02*
X-25932093Y44517762D01*
X-25932093Y44517762D02*
X-25455902Y44517762D01*
X-25455902Y44517762D02*
X-25170188Y44422524D01*
X-23170188Y42708239D02*
X-23265426Y42613000D01*
X-23265426Y42613000D02*
X-23551140Y42517762D01*
X-23551140Y42517762D02*
X-23741616Y42517762D01*
X-23741616Y42517762D02*
X-24027331Y42613000D01*
X-24027331Y42613000D02*
X-24217807Y42803477D01*
X-24217807Y42803477D02*
X-24313045Y42993953D01*
X-24313045Y42993953D02*
X-24408283Y43374905D01*
X-24408283Y43374905D02*
X-24408283Y43660620D01*
X-24408283Y43660620D02*
X-24313045Y44041572D01*
X-24313045Y44041572D02*
X-24217807Y44232048D01*
X-24217807Y44232048D02*
X-24027331Y44422524D01*
X-24027331Y44422524D02*
X-23741616Y44517762D01*
X-23741616Y44517762D02*
X-23551140Y44517762D01*
X-23551140Y44517762D02*
X-23265426Y44422524D01*
X-23265426Y44422524D02*
X-23170188Y44327286D01*
X-21932093Y44517762D02*
X-21551140Y44517762D01*
X-21551140Y44517762D02*
X-21360664Y44422524D01*
X-21360664Y44422524D02*
X-21170188Y44232048D01*
X-21170188Y44232048D02*
X-21074950Y43851096D01*
X-21074950Y43851096D02*
X-21074950Y43184429D01*
X-21074950Y43184429D02*
X-21170188Y42803477D01*
X-21170188Y42803477D02*
X-21360664Y42613000D01*
X-21360664Y42613000D02*
X-21551140Y42517762D01*
X-21551140Y42517762D02*
X-21932093Y42517762D01*
X-21932093Y42517762D02*
X-22122569Y42613000D01*
X-22122569Y42613000D02*
X-22313045Y42803477D01*
X-22313045Y42803477D02*
X-22408283Y43184429D01*
X-22408283Y43184429D02*
X-22408283Y43851096D01*
X-22408283Y43851096D02*
X-22313045Y44232048D01*
X-22313045Y44232048D02*
X-22122569Y44422524D01*
X-22122569Y44422524D02*
X-21932093Y44517762D01*
X-19074950Y42517762D02*
X-19741617Y43470143D01*
X-20217807Y42517762D02*
X-20217807Y44517762D01*
X-20217807Y44517762D02*
X-19455902Y44517762D01*
X-19455902Y44517762D02*
X-19265426Y44422524D01*
X-19265426Y44422524D02*
X-19170188Y44327286D01*
X-19170188Y44327286D02*
X-19074950Y44136810D01*
X-19074950Y44136810D02*
X-19074950Y43851096D01*
X-19074950Y43851096D02*
X-19170188Y43660620D01*
X-19170188Y43660620D02*
X-19265426Y43565381D01*
X-19265426Y43565381D02*
X-19455902Y43470143D01*
X-19455902Y43470143D02*
X-20217807Y43470143D01*
X-18217807Y43565381D02*
X-17551140Y43565381D01*
X-17265426Y42517762D02*
X-18217807Y42517762D01*
X-18217807Y42517762D02*
X-18217807Y44517762D01*
X-18217807Y44517762D02*
X-17265426Y44517762D01*
D12*
X-14720000Y43430000D02*
X152880000Y43430000D01*
D11*
X-30693997Y88197762D02*
X-30027331Y86197762D01*
X-30027331Y86197762D02*
X-29360664Y88197762D01*
X-28693997Y86959667D02*
X-27170187Y86959667D01*
X-26313045Y86293000D02*
X-26027331Y86197762D01*
X-26027331Y86197762D02*
X-25551140Y86197762D01*
X-25551140Y86197762D02*
X-25360664Y86293000D01*
X-25360664Y86293000D02*
X-25265426Y86388239D01*
X-25265426Y86388239D02*
X-25170188Y86578715D01*
X-25170188Y86578715D02*
X-25170188Y86769191D01*
X-25170188Y86769191D02*
X-25265426Y86959667D01*
X-25265426Y86959667D02*
X-25360664Y87054905D01*
X-25360664Y87054905D02*
X-25551140Y87150143D01*
X-25551140Y87150143D02*
X-25932093Y87245381D01*
X-25932093Y87245381D02*
X-26122569Y87340620D01*
X-26122569Y87340620D02*
X-26217807Y87435858D01*
X-26217807Y87435858D02*
X-26313045Y87626334D01*
X-26313045Y87626334D02*
X-26313045Y87816810D01*
X-26313045Y87816810D02*
X-26217807Y88007286D01*
X-26217807Y88007286D02*
X-26122569Y88102524D01*
X-26122569Y88102524D02*
X-25932093Y88197762D01*
X-25932093Y88197762D02*
X-25455902Y88197762D01*
X-25455902Y88197762D02*
X-25170188Y88102524D01*
X-23170188Y86388239D02*
X-23265426Y86293000D01*
X-23265426Y86293000D02*
X-23551140Y86197762D01*
X-23551140Y86197762D02*
X-23741616Y86197762D01*
X-23741616Y86197762D02*
X-24027331Y86293000D01*
X-24027331Y86293000D02*
X-24217807Y86483477D01*
X-24217807Y86483477D02*
X-24313045Y86673953D01*
X-24313045Y86673953D02*
X-24408283Y87054905D01*
X-24408283Y87054905D02*
X-24408283Y87340620D01*
X-24408283Y87340620D02*
X-24313045Y87721572D01*
X-24313045Y87721572D02*
X-24217807Y87912048D01*
X-24217807Y87912048D02*
X-24027331Y88102524D01*
X-24027331Y88102524D02*
X-23741616Y88197762D01*
X-23741616Y88197762D02*
X-23551140Y88197762D01*
X-23551140Y88197762D02*
X-23265426Y88102524D01*
X-23265426Y88102524D02*
X-23170188Y88007286D01*
X-21932093Y88197762D02*
X-21551140Y88197762D01*
X-21551140Y88197762D02*
X-21360664Y88102524D01*
X-21360664Y88102524D02*
X-21170188Y87912048D01*
X-21170188Y87912048D02*
X-21074950Y87531096D01*
X-21074950Y87531096D02*
X-21074950Y86864429D01*
X-21074950Y86864429D02*
X-21170188Y86483477D01*
X-21170188Y86483477D02*
X-21360664Y86293000D01*
X-21360664Y86293000D02*
X-21551140Y86197762D01*
X-21551140Y86197762D02*
X-21932093Y86197762D01*
X-21932093Y86197762D02*
X-22122569Y86293000D01*
X-22122569Y86293000D02*
X-22313045Y86483477D01*
X-22313045Y86483477D02*
X-22408283Y86864429D01*
X-22408283Y86864429D02*
X-22408283Y87531096D01*
X-22408283Y87531096D02*
X-22313045Y87912048D01*
X-22313045Y87912048D02*
X-22122569Y88102524D01*
X-22122569Y88102524D02*
X-21932093Y88197762D01*
X-19074950Y86197762D02*
X-19741617Y87150143D01*
X-20217807Y86197762D02*
X-20217807Y88197762D01*
X-20217807Y88197762D02*
X-19455902Y88197762D01*
X-19455902Y88197762D02*
X-19265426Y88102524D01*
X-19265426Y88102524D02*
X-19170188Y88007286D01*
X-19170188Y88007286D02*
X-19074950Y87816810D01*
X-19074950Y87816810D02*
X-19074950Y87531096D01*
X-19074950Y87531096D02*
X-19170188Y87340620D01*
X-19170188Y87340620D02*
X-19265426Y87245381D01*
X-19265426Y87245381D02*
X-19455902Y87150143D01*
X-19455902Y87150143D02*
X-20217807Y87150143D01*
X-18217807Y87245381D02*
X-17551140Y87245381D01*
X-17265426Y86197762D02*
X-18217807Y86197762D01*
X-18217807Y86197762D02*
X-18217807Y88197762D01*
X-18217807Y88197762D02*
X-17265426Y88197762D01*
D12*
X-14720000Y87110000D02*
X152880000Y87110000D01*
D11*
X144942238Y96314950D02*
X146942238Y96981616D01*
X146942238Y96981616D02*
X144942238Y97648283D01*
X146180333Y98314950D02*
X146180333Y99838759D01*
X146847000Y100695902D02*
X146942238Y100981616D01*
X146942238Y100981616D02*
X146942238Y101457807D01*
X146942238Y101457807D02*
X146847000Y101648283D01*
X146847000Y101648283D02*
X146751761Y101743521D01*
X146751761Y101743521D02*
X146561285Y101838759D01*
X146561285Y101838759D02*
X146370809Y101838759D01*
X146370809Y101838759D02*
X146180333Y101743521D01*
X146180333Y101743521D02*
X146085095Y101648283D01*
X146085095Y101648283D02*
X145989857Y101457807D01*
X145989857Y101457807D02*
X145894619Y101076854D01*
X145894619Y101076854D02*
X145799380Y100886378D01*
X145799380Y100886378D02*
X145704142Y100791140D01*
X145704142Y100791140D02*
X145513666Y100695902D01*
X145513666Y100695902D02*
X145323190Y100695902D01*
X145323190Y100695902D02*
X145132714Y100791140D01*
X145132714Y100791140D02*
X145037476Y100886378D01*
X145037476Y100886378D02*
X144942238Y101076854D01*
X144942238Y101076854D02*
X144942238Y101553045D01*
X144942238Y101553045D02*
X145037476Y101838759D01*
X146751761Y103838759D02*
X146847000Y103743521D01*
X146847000Y103743521D02*
X146942238Y103457807D01*
X146942238Y103457807D02*
X146942238Y103267331D01*
X146942238Y103267331D02*
X146847000Y102981616D01*
X146847000Y102981616D02*
X146656523Y102791140D01*
X146656523Y102791140D02*
X146466047Y102695902D01*
X146466047Y102695902D02*
X146085095Y102600664D01*
X146085095Y102600664D02*
X145799380Y102600664D01*
X145799380Y102600664D02*
X145418428Y102695902D01*
X145418428Y102695902D02*
X145227952Y102791140D01*
X145227952Y102791140D02*
X145037476Y102981616D01*
X145037476Y102981616D02*
X144942238Y103267331D01*
X144942238Y103267331D02*
X144942238Y103457807D01*
X144942238Y103457807D02*
X145037476Y103743521D01*
X145037476Y103743521D02*
X145132714Y103838759D01*
X144942238Y105076854D02*
X144942238Y105457807D01*
X144942238Y105457807D02*
X145037476Y105648283D01*
X145037476Y105648283D02*
X145227952Y105838759D01*
X145227952Y105838759D02*
X145608904Y105933997D01*
X145608904Y105933997D02*
X146275571Y105933997D01*
X146275571Y105933997D02*
X146656523Y105838759D01*
X146656523Y105838759D02*
X146847000Y105648283D01*
X146847000Y105648283D02*
X146942238Y105457807D01*
X146942238Y105457807D02*
X146942238Y105076854D01*
X146942238Y105076854D02*
X146847000Y104886378D01*
X146847000Y104886378D02*
X146656523Y104695902D01*
X146656523Y104695902D02*
X146275571Y104600664D01*
X146275571Y104600664D02*
X145608904Y104600664D01*
X145608904Y104600664D02*
X145227952Y104695902D01*
X145227952Y104695902D02*
X145037476Y104886378D01*
X145037476Y104886378D02*
X144942238Y105076854D01*
X146942238Y107933997D02*
X145989857Y107267330D01*
X146942238Y106791140D02*
X144942238Y106791140D01*
X144942238Y106791140D02*
X144942238Y107553045D01*
X144942238Y107553045D02*
X145037476Y107743521D01*
X145037476Y107743521D02*
X145132714Y107838759D01*
X145132714Y107838759D02*
X145323190Y107933997D01*
X145323190Y107933997D02*
X145608904Y107933997D01*
X145608904Y107933997D02*
X145799380Y107838759D01*
X145799380Y107838759D02*
X145894619Y107743521D01*
X145894619Y107743521D02*
X145989857Y107553045D01*
X145989857Y107553045D02*
X145989857Y106791140D01*
X145894619Y108791140D02*
X145894619Y109457807D01*
X146942238Y109743521D02*
X146942238Y108791140D01*
X146942238Y108791140D02*
X144942238Y108791140D01*
X144942238Y108791140D02*
X144942238Y109743521D01*
D12*
X146030000Y93960000D02*
X146030000Y-7100000D01*
M02*
