M48
; DRILL file {KiCad 9.0.6-rc2} date 2025-11-12T12:35:51+0000
; FORMAT={-:-/ absolute / metric / decimal}
; #@! TF.CreationDate,2025-11-12T12:35:51+00:00
; #@! TF.GenerationSoftware,Kicad,Pcbnew,9.0.6-rc2
; #@! TF.FileFunction,MixedPlating,1,4
FMAT,2
METRIC
; #@! TA.AperFunction,Plated,PTH,ViaDrill
T1C0.305
; #@! TA.AperFunction,Plated,PTH,ComponentDrill
T2C0.600
; #@! TA.AperFunction,Plated,PTH,ComponentDrill
T3C1.016
; #@! TA.AperFunction,NonPlated,NPTH,ComponentDrill
T4C0.650
; #@! TA.AperFunction,NonPlated,NPTH,ComponentDrill
T5C3.100
%
G90
G05
T1
X1.524Y58.793
X1.524Y58.158
X1.524Y15.113
X1.524Y14.478
X2.667Y63.238
X2.667Y62.603
X2.667Y19.558
X2.667Y18.923
X4.191Y59.936
X4.191Y52.824
X4.191Y16.256
X4.191Y9.144
X6.35Y68.826
X6.35Y25.146
X7.112Y59.682
X7.112Y56.761
X7.112Y55.491
X7.112Y53.078
X7.112Y16.002
X7.112Y13.081
X7.112Y11.811
X7.112Y9.398
X7.747Y58.92
X7.747Y53.84
X7.747Y15.24
X7.747Y10.16
X8.128Y74.033
X8.128Y72.382
X8.128Y66.286
X8.128Y64.635
X8.128Y51.046
X8.128Y30.353
X8.128Y28.702
X8.128Y22.606
X8.128Y20.955
X8.128Y7.366
X10.16Y69.334
X10.16Y57.65
X10.16Y56.38
X10.16Y55.11
X10.16Y25.654
X10.16Y13.97
X10.16Y12.7
X10.16Y11.43
X10.287Y82.796
X10.287Y39.116
X10.541Y63.492
X10.541Y19.812
X10.922Y52.697
X10.922Y51.046
X10.922Y9.017
X10.922Y7.366
X11.303Y63.492
X11.303Y19.812
X11.557Y84.701
X11.557Y41.021
X11.938Y82.796
X11.938Y39.116
X12.192Y84.701
X12.192Y41.021
X12.319Y72.89
X12.319Y71.874
X12.319Y29.21
X12.319Y28.194
X12.573Y56.38
X12.573Y12.7
X12.7Y58.031
X12.7Y14.351
X12.827Y71.239
X12.827Y27.559
X13.208Y67.429
X13.208Y23.749
X13.589Y71.239
X13.589Y27.559
X13.97Y50.03
X13.97Y6.35
X14.732Y76.7
X14.732Y75.43
X14.732Y71.62
X14.732Y33.02
X14.732Y31.75
X14.732Y27.94
X14.859Y67.302
X14.859Y23.622
X15.367Y74.16
X15.367Y72.89
X15.367Y30.48
X15.367Y29.21
X15.875Y56.38
X15.875Y12.7
X16.002Y62.476
X16.002Y60.825
X16.002Y18.796
X16.002Y17.145
X16.637Y52.697
X16.637Y51.046
X16.637Y9.017
X16.637Y7.366
X18.288Y59.047
X18.288Y15.367
X18.415Y66.54
X18.415Y22.86
X18.542Y72.636
X18.542Y28.956
X18.796Y50.03
X18.796Y6.35
X19.177Y59.047
X19.177Y15.367
X19.266Y75.176
X19.266Y31.496
X19.309Y55.369
X19.309Y11.689
X19.69Y51.432
X19.69Y7.752
X19.812Y75.811
X19.812Y61.079
X19.812Y32.131
X19.812Y17.399
X20.32Y52.062
X20.32Y50.665
X20.32Y8.382
X20.32Y6.985
X20.447Y67.81
X20.447Y24.13
X20.574Y54.475
X20.574Y10.795
X21.082Y69.08
X21.082Y25.4
X21.59Y79.875
X21.59Y36.195
X22.733Y72.509
X22.733Y28.829
X22.86Y54.475
X22.86Y10.795
X23.241Y59.428
X23.241Y15.748
X23.749Y54.475
X23.749Y10.795
X24.13Y78.859
X24.13Y35.179
X24.384Y69.461
X24.384Y68.445
X24.384Y67.429
X24.384Y66.413
X24.384Y65.397
X24.384Y64.381
X24.384Y63.365
X24.384Y62.349
X24.384Y61.206
X24.384Y25.781
X24.384Y24.765
X24.384Y23.749
X24.384Y22.733
X24.384Y21.717
X24.384Y20.701
X24.384Y19.685
X24.384Y18.669
X24.384Y17.526
X24.892Y70.477
X24.892Y26.797
X25.146Y54.983
X25.146Y11.303
X25.4Y74.541
X25.4Y69.461
X25.4Y61.206
X25.4Y30.861
X25.4Y25.781
X25.4Y17.526
X26.035Y54.983
X26.035Y11.303
X26.416Y69.461
X26.416Y61.206
X26.416Y25.781
X26.416Y17.526
X26.67Y52.062
X26.67Y8.382
X27.305Y72.636
X27.305Y28.956
X27.432Y69.461
X27.432Y61.206
X27.432Y25.781
X27.432Y17.526
X27.686Y57.269
X27.686Y13.589
X28.448Y69.461
X28.448Y61.206
X28.448Y25.781
X28.448Y17.526
X28.702Y74.16
X28.702Y30.48
X29.273Y72.7
X29.273Y29.019
X29.464Y69.461
X29.464Y61.206
X29.464Y25.781
X29.464Y17.526
X30.099Y74.16
X30.099Y30.48
X30.353Y69.461
X30.353Y61.206
X30.353Y25.781
X30.353Y17.526
X31.242Y61.206
X31.242Y17.526
X31.75Y51.427
X31.75Y7.747
X32.131Y61.206
X32.131Y17.526
X33.02Y69.461
X33.02Y68.318
X33.02Y67.175
X33.02Y66.286
X33.02Y65.397
X33.02Y64.381
X33.02Y63.365
X33.02Y62.349
X33.02Y61.206
X33.02Y47.094
X33.02Y25.781
X33.02Y24.638
X33.02Y23.495
X33.02Y22.606
X33.02Y21.717
X33.02Y20.701
X33.02Y19.685
X33.02Y18.669
X33.02Y17.526
X33.02Y3.414
X33.401Y73.779
X33.401Y30.099
X33.718Y77.906
X33.718Y34.227
X33.782Y79.875
X33.782Y36.195
X34.29Y51.681
X34.29Y8.001
X35.687Y70.35
X35.687Y26.67
X36.322Y82.796
X36.322Y47.744
X36.322Y39.116
X36.322Y4.064
X36.957Y69.08
X36.957Y25.4
X37.592Y67.81
X37.592Y24.13
X37.719Y79.494
X37.719Y35.814
X37.973Y82.796
X37.973Y47.744
X37.973Y39.116
X37.973Y4.064
X38.735Y79.494
X38.735Y35.814
X42.037Y78.605
X42.037Y77.97
X42.037Y77.208
X42.037Y76.573
X42.037Y75.811
X42.037Y75.176
X42.037Y34.925
X42.037Y34.29
X42.037Y33.528
X42.037Y32.893
X42.037Y32.131
X42.037Y31.496
X52.824Y58.793
X52.824Y58.158
X52.824Y15.113
X52.824Y14.478
X53.967Y63.238
X53.967Y62.603
X53.967Y19.558
X53.967Y18.923
X55.491Y59.936
X55.491Y52.824
X55.491Y16.256
X55.491Y9.144
X57.65Y68.826
X57.65Y25.146
X58.412Y59.682
X58.412Y56.761
X58.412Y55.491
X58.412Y53.078
X58.412Y16.002
X58.412Y13.081
X58.412Y11.811
X58.412Y9.398
X59.047Y58.92
X59.047Y53.84
X59.047Y15.24
X59.047Y10.16
X59.428Y74.033
X59.428Y72.382
X59.428Y66.286
X59.428Y64.635
X59.428Y51.046
X59.428Y30.353
X59.428Y28.702
X59.428Y22.606
X59.428Y20.955
X59.428Y7.366
X61.46Y69.334
X61.46Y57.65
X61.46Y56.38
X61.46Y55.11
X61.46Y25.654
X61.46Y13.97
X61.46Y12.7
X61.46Y11.43
X61.587Y82.796
X61.587Y39.116
X61.841Y63.492
X61.841Y19.812
X62.222Y52.697
X62.222Y51.046
X62.222Y9.017
X62.222Y7.366
X62.603Y63.492
X62.603Y19.812
X62.857Y84.701
X62.857Y41.021
X63.238Y82.796
X63.238Y39.116
X63.492Y84.701
X63.492Y41.021
X63.619Y72.89
X63.619Y71.874
X63.619Y29.21
X63.619Y28.194
X63.873Y56.38
X63.873Y12.7
X64.0Y58.031
X64.0Y14.351
X64.127Y71.239
X64.127Y27.559
X64.508Y67.429
X64.508Y23.749
X64.889Y71.239
X64.889Y27.559
X65.27Y50.03
X65.27Y6.35
X66.032Y76.7
X66.032Y75.43
X66.032Y71.62
X66.032Y33.02
X66.032Y31.75
X66.032Y27.94
X66.159Y67.302
X66.159Y23.622
X66.667Y74.16
X66.667Y72.89
X66.667Y30.48
X66.667Y29.21
X67.175Y56.38
X67.175Y12.7
X67.302Y62.476
X67.302Y60.825
X67.302Y18.796
X67.302Y17.145
X67.937Y52.697
X67.937Y51.046
X67.937Y9.017
X67.937Y7.366
X69.588Y59.047
X69.588Y15.367
X69.715Y66.54
X69.715Y22.86
X69.842Y72.636
X69.842Y28.956
X70.096Y50.03
X70.096Y6.35
X70.477Y59.047
X70.477Y15.367
X70.566Y75.176
X70.566Y31.496
X70.609Y55.369
X70.609Y11.689
X70.99Y51.432
X70.99Y7.752
X71.112Y75.811
X71.112Y61.079
X71.112Y32.131
X71.112Y17.399
X71.62Y52.062
X71.62Y50.665
X71.62Y8.382
X71.62Y6.985
X71.747Y67.81
X71.747Y24.13
X71.874Y54.475
X71.874Y10.795
X72.382Y69.08
X72.382Y25.4
X72.89Y79.875
X72.89Y36.195
X74.033Y72.509
X74.033Y28.829
X74.16Y54.475
X74.16Y10.795
X74.541Y59.428
X74.541Y15.748
X75.049Y54.475
X75.049Y10.795
X75.43Y78.859
X75.43Y35.179
X75.684Y69.461
X75.684Y68.445
X75.684Y67.429
X75.684Y66.413
X75.684Y65.397
X75.684Y64.381
X75.684Y63.365
X75.684Y62.349
X75.684Y61.206
X75.684Y25.781
X75.684Y24.765
X75.684Y23.749
X75.684Y22.733
X75.684Y21.717
X75.684Y20.701
X75.684Y19.685
X75.684Y18.669
X75.684Y17.526
X76.192Y70.477
X76.192Y26.797
X76.446Y54.983
X76.446Y11.303
X76.7Y74.541
X76.7Y69.461
X76.7Y61.206
X76.7Y30.861
X76.7Y25.781
X76.7Y17.526
X77.335Y54.983
X77.335Y11.303
X77.716Y69.461
X77.716Y61.206
X77.716Y25.781
X77.716Y17.526
X77.97Y52.062
X77.97Y8.382
X78.605Y72.636
X78.605Y28.956
X78.732Y69.461
X78.732Y61.206
X78.732Y25.781
X78.732Y17.526
X78.986Y57.269
X78.986Y13.589
X79.748Y69.461
X79.748Y61.206
X79.748Y25.781
X79.748Y17.526
X80.002Y74.16
X80.002Y30.48
X80.573Y72.7
X80.573Y29.019
X80.764Y69.461
X80.764Y61.206
X80.764Y25.781
X80.764Y17.526
X81.399Y74.16
X81.399Y30.48
X81.653Y69.461
X81.653Y61.206
X81.653Y25.781
X81.653Y17.526
X82.542Y61.206
X82.542Y17.526
X83.05Y51.427
X83.05Y7.747
X83.431Y61.206
X83.431Y17.526
X84.32Y69.461
X84.32Y68.318
X84.32Y67.175
X84.32Y66.286
X84.32Y65.397
X84.32Y64.381
X84.32Y63.365
X84.32Y62.349
X84.32Y61.206
X84.32Y47.094
X84.32Y25.781
X84.32Y24.638
X84.32Y23.495
X84.32Y22.606
X84.32Y21.717
X84.32Y20.701
X84.32Y19.685
X84.32Y18.669
X84.32Y17.526
X84.32Y3.414
X84.701Y73.779
X84.701Y30.099
X85.019Y77.906
X85.019Y34.227
X85.082Y79.875
X85.082Y36.195
X85.59Y51.681
X85.59Y8.001
X86.987Y70.35
X86.987Y26.67
X87.622Y82.796
X87.622Y47.744
X87.622Y39.116
X87.622Y4.064
X88.257Y69.08
X88.257Y25.4
X88.892Y67.81
X88.892Y24.13
X89.019Y79.494
X89.019Y35.814
X89.273Y82.796
X89.273Y47.744
X89.273Y39.116
X89.273Y4.064
X90.035Y79.494
X90.035Y35.814
X93.337Y78.605
X93.337Y77.97
X93.337Y77.208
X93.337Y76.573
X93.337Y75.811
X93.337Y75.176
X93.337Y34.925
X93.337Y34.29
X93.337Y33.528
X93.337Y32.893
X93.337Y32.131
X93.337Y31.496
X104.124Y58.793
X104.124Y58.158
X104.124Y15.113
X104.124Y14.478
X105.267Y63.238
X105.267Y62.603
X105.267Y19.558
X105.267Y18.923
X106.791Y59.936
X106.791Y52.824
X106.791Y16.256
X106.791Y9.144
X108.95Y68.826
X108.95Y25.146
X109.712Y59.682
X109.712Y56.761
X109.712Y55.491
X109.712Y53.078
X109.712Y16.002
X109.712Y13.081
X109.712Y11.811
X109.712Y9.398
X110.347Y58.92
X110.347Y53.84
X110.347Y15.24
X110.347Y10.16
X110.728Y74.033
X110.728Y72.382
X110.728Y66.286
X110.728Y64.635
X110.728Y51.046
X110.728Y30.353
X110.728Y28.702
X110.728Y22.606
X110.728Y20.955
X110.728Y7.366
X112.76Y69.334
X112.76Y57.65
X112.76Y56.38
X112.76Y55.11
X112.76Y25.654
X112.76Y13.97
X112.76Y12.7
X112.76Y11.43
X112.887Y82.796
X112.887Y39.116
X113.141Y63.492
X113.141Y19.812
X113.522Y52.697
X113.522Y51.046
X113.522Y9.017
X113.522Y7.366
X113.903Y63.492
X113.903Y19.812
X114.157Y84.701
X114.157Y41.021
X114.538Y82.796
X114.538Y39.116
X114.792Y84.701
X114.792Y41.021
X114.919Y72.89
X114.919Y71.874
X114.919Y29.21
X114.919Y28.194
X115.173Y56.38
X115.173Y12.7
X115.3Y58.031
X115.3Y14.351
X115.427Y71.239
X115.427Y27.559
X115.808Y67.429
X115.808Y23.749
X116.189Y71.239
X116.189Y27.559
X116.57Y50.03
X116.57Y6.35
X117.332Y76.7
X117.332Y75.43
X117.332Y71.62
X117.332Y33.02
X117.332Y31.75
X117.332Y27.94
X117.459Y67.302
X117.459Y23.622
X117.967Y74.16
X117.967Y72.89
X117.967Y30.48
X117.967Y29.21
X118.475Y56.38
X118.475Y12.7
X118.602Y62.476
X118.602Y60.825
X118.602Y18.796
X118.602Y17.145
X119.237Y52.697
X119.237Y51.046
X119.237Y9.017
X119.237Y7.366
X120.888Y59.047
X120.888Y15.367
X121.015Y66.54
X121.015Y22.86
X121.142Y72.636
X121.142Y28.956
X121.396Y50.03
X121.396Y6.35
X121.777Y59.047
X121.777Y15.367
X121.866Y75.176
X121.866Y31.496
X121.909Y55.369
X121.909Y11.689
X122.29Y51.432
X122.29Y7.752
X122.412Y75.811
X122.412Y61.079
X122.412Y32.131
X122.412Y17.399
X122.92Y52.062
X122.92Y50.665
X122.92Y8.382
X122.92Y6.985
X123.047Y67.81
X123.047Y24.13
X123.174Y54.475
X123.174Y10.795
X123.682Y69.08
X123.682Y25.4
X124.19Y79.875
X124.19Y36.195
X125.333Y72.509
X125.333Y28.829
X125.46Y54.475
X125.46Y10.795
X125.841Y59.428
X125.841Y15.748
X126.349Y54.475
X126.349Y10.795
X126.73Y78.859
X126.73Y35.179
X126.984Y69.461
X126.984Y68.445
X126.984Y67.429
X126.984Y66.413
X126.984Y65.397
X126.984Y64.381
X126.984Y63.365
X126.984Y62.349
X126.984Y61.206
X126.984Y25.781
X126.984Y24.765
X126.984Y23.749
X126.984Y22.733
X126.984Y21.717
X126.984Y20.701
X126.984Y19.685
X126.984Y18.669
X126.984Y17.526
X127.492Y70.477
X127.492Y26.797
X127.746Y54.983
X127.746Y11.303
X128.0Y74.541
X128.0Y69.461
X128.0Y61.206
X128.0Y30.861
X128.0Y25.781
X128.0Y17.526
X128.635Y54.983
X128.635Y11.303
X129.016Y69.461
X129.016Y61.206
X129.016Y25.781
X129.016Y17.526
X129.27Y52.062
X129.27Y8.382
X129.905Y72.636
X129.905Y28.956
X130.032Y69.461
X130.032Y61.206
X130.032Y25.781
X130.032Y17.526
X130.286Y57.269
X130.286Y13.589
X131.048Y69.461
X131.048Y61.206
X131.048Y25.781
X131.048Y17.526
X131.302Y74.16
X131.302Y30.48
X131.874Y72.7
X131.874Y29.019
X132.064Y69.461
X132.064Y61.206
X132.064Y25.781
X132.064Y17.526
X132.699Y74.16
X132.699Y30.48
X132.953Y69.461
X132.953Y61.206
X132.953Y25.781
X132.953Y17.526
X133.842Y61.206
X133.842Y17.526
X134.35Y51.427
X134.35Y7.747
X134.731Y61.206
X134.731Y17.526
X135.62Y69.461
X135.62Y68.318
X135.62Y67.175
X135.62Y66.286
X135.62Y65.397
X135.62Y64.381
X135.62Y63.365
X135.62Y62.349
X135.62Y61.206
X135.62Y47.094
X135.62Y25.781
X135.62Y24.638
X135.62Y23.495
X135.62Y22.606
X135.62Y21.717
X135.62Y20.701
X135.62Y19.685
X135.62Y18.669
X135.62Y17.526
X135.62Y3.414
X136.001Y73.779
X136.001Y30.099
X136.319Y77.906
X136.319Y34.227
X136.382Y79.875
X136.382Y36.195
X136.89Y51.681
X136.89Y8.001
X138.287Y70.35
X138.287Y26.67
X138.922Y82.796
X138.922Y47.744
X138.922Y39.116
X138.922Y4.064
X139.557Y69.08
X139.557Y25.4
X140.192Y67.81
X140.192Y24.13
X140.319Y79.494
X140.319Y35.814
X140.573Y82.796
X140.573Y47.744
X140.573Y39.116
X140.573Y4.064
X141.335Y79.494
X141.335Y35.814
X144.637Y78.605
X144.637Y77.97
X144.637Y77.208
X144.637Y76.573
X144.637Y75.811
X144.637Y75.176
X144.637Y34.925
X144.637Y34.29
X144.637Y33.528
X144.637Y32.893
X144.637Y32.131
X144.637Y31.496
T3
X3.81Y75.43
X3.81Y31.75
X6.35Y75.43
X6.35Y31.75
X13.97Y85.59
X13.97Y44.95
X13.97Y41.91
X13.97Y1.27
X16.51Y85.59
X16.51Y44.95
X16.51Y41.91
X16.51Y1.27
X19.05Y85.59
X19.05Y44.95
X19.05Y41.91
X19.05Y1.27
X21.59Y85.59
X21.59Y44.95
X21.59Y41.91
X21.59Y1.27
X24.13Y85.59
X24.13Y44.95
X24.13Y41.91
X24.13Y1.27
X26.67Y85.59
X26.67Y44.95
X26.67Y41.91
X26.67Y1.27
X29.21Y85.59
X29.21Y44.95
X29.21Y41.91
X29.21Y1.27
X31.75Y85.59
X31.75Y44.95
X31.75Y41.91
X31.75Y1.27
X34.29Y85.59
X34.29Y44.95
X34.29Y41.91
X34.29Y1.27
X55.11Y75.43
X55.11Y31.75
X57.65Y75.43
X57.65Y31.75
X65.27Y85.59
X65.27Y44.95
X65.27Y41.91
X65.27Y1.27
X67.81Y85.59
X67.81Y44.95
X67.81Y41.91
X67.81Y1.27
X70.35Y85.59
X70.35Y44.95
X70.35Y41.91
X70.35Y1.27
X72.89Y85.59
X72.89Y44.95
X72.89Y41.91
X72.89Y1.27
X75.43Y85.59
X75.43Y44.95
X75.43Y41.91
X75.43Y1.27
X77.97Y85.59
X77.97Y44.95
X77.97Y41.91
X77.97Y1.27
X80.51Y85.59
X80.51Y44.95
X80.51Y41.91
X80.51Y1.27
X83.05Y85.59
X83.05Y44.95
X83.05Y41.91
X83.05Y1.27
X85.59Y85.59
X85.59Y44.95
X85.59Y41.91
X85.59Y1.27
X106.41Y75.43
X106.41Y31.75
X108.95Y75.43
X108.95Y31.75
X116.57Y85.59
X116.57Y44.95
X116.57Y41.91
X116.57Y1.27
X119.11Y85.59
X119.11Y44.95
X119.11Y41.91
X119.11Y1.27
X121.65Y85.59
X121.65Y44.95
X121.65Y41.91
X121.65Y1.27
X124.19Y85.59
X124.19Y44.95
X124.19Y41.91
X124.19Y1.27
X126.73Y85.59
X126.73Y44.95
X126.73Y41.91
X126.73Y1.27
X129.27Y85.59
X129.27Y44.95
X129.27Y41.91
X129.27Y1.27
X131.81Y85.59
X131.81Y44.95
X131.81Y41.91
X131.81Y1.27
X134.35Y85.59
X134.35Y44.95
X134.35Y41.91
X134.35Y1.27
X136.89Y85.59
X136.89Y44.95
X136.89Y41.91
X136.89Y1.27
T4
X4.905Y59.27
X4.905Y53.49
X4.905Y15.59
X4.905Y9.81
X56.205Y59.27
X56.205Y53.49
X56.205Y15.59
X56.205Y9.81
X107.505Y59.27
X107.505Y53.49
X107.505Y15.59
X107.505Y9.81
T5
X2.5Y46.18
X2.5Y2.5
X2.54Y84.32
X2.54Y40.64
X40.64Y84.32
X40.64Y46.22
X40.64Y40.64
X40.64Y2.54
X53.8Y46.18
X53.8Y2.5
X53.84Y84.32
X53.84Y40.64
X91.94Y84.32
X91.94Y46.22
X91.94Y40.64
X91.94Y2.54
X105.1Y46.18
X105.1Y2.5
X105.14Y84.32
X105.14Y40.64
X143.24Y84.32
X143.24Y46.22
X143.24Y40.64
X143.24Y2.54
T2
G00X1.555Y60.698
M15
G01X0.955Y60.698
M16
G05
G00X1.555Y52.062
M15
G01X0.955Y52.062
M16
G05
G00X1.555Y17.018
M15
G01X0.955Y17.018
M16
G05
G00X1.555Y8.382
M15
G01X0.955Y8.382
M16
G05
G00X5.985Y60.698
M15
G01X4.885Y60.698
M16
G05
G00X5.985Y52.062
M15
G01X4.885Y52.062
M16
G05
G00X5.985Y17.018
M15
G01X4.885Y17.018
M16
G05
G00X5.985Y8.382
M15
G01X4.885Y8.382
M16
G05
G00X52.855Y60.698
M15
G01X52.255Y60.698
M16
G05
G00X52.855Y52.062
M15
G01X52.255Y52.062
M16
G05
G00X52.855Y17.018
M15
G01X52.255Y17.018
M16
G05
G00X52.855Y8.382
M15
G01X52.255Y8.382
M16
G05
G00X57.285Y60.698
M15
G01X56.185Y60.698
M16
G05
G00X57.285Y52.062
M15
G01X56.185Y52.062
M16
G05
G00X57.285Y17.018
M15
G01X56.185Y17.018
M16
G05
G00X57.285Y8.382
M15
G01X56.185Y8.382
M16
G05
G00X104.155Y60.698
M15
G01X103.555Y60.698
M16
G05
G00X104.155Y52.062
M15
G01X103.555Y52.062
M16
G05
G00X104.155Y17.018
M15
G01X103.555Y17.018
M16
G05
G00X104.155Y8.382
M15
G01X103.555Y8.382
M16
G05
G00X108.585Y60.698
M15
G01X107.485Y60.698
M16
G05
G00X108.585Y52.062
M15
G01X107.485Y52.062
M16
G05
G00X108.585Y17.018
M15
G01X107.485Y17.018
M16
G05
G00X108.585Y8.382
M15
G01X107.485Y8.382
M16
G05
M30
