%TF.GenerationSoftware,KiCad,Pcbnew,9.0.5*%
%TF.CreationDate,2025-10-20T14:15:31+01:00*%
%TF.ProjectId,SparkFun_IM19_IMU_Breakout_panelized,53706172-6b46-4756-9e5f-494d31395f49,v10*%
%TF.SameCoordinates,Original*%
%TF.FileFunction,Soldermask,Bot*%
%TF.FilePolarity,Negative*%
%FSLAX46Y46*%
G04 Gerber Fmt 4.6, Leading zero omitted, Abs format (unit mm)*
G04 Created by KiCad (PCBNEW 9.0.5) date 2025-10-20 14:15:31*
%MOMM*%
%LPD*%
G01*
G04 APERTURE LIST*
G04 Aperture macros list*
%AMRoundRect*
0 Rectangle with rounded corners*
0 $1 Rounding radius*
0 $2 $3 $4 $5 $6 $7 $8 $9 X,Y pos of 4 corners*
0 Add a 4 corners polygon primitive as box body*
4,1,4,$2,$3,$4,$5,$6,$7,$8,$9,$2,$3,0*
0 Add four circle primitives for the rounded corners*
1,1,$1+$1,$2,$3*
1,1,$1+$1,$4,$5*
1,1,$1+$1,$6,$7*
1,1,$1+$1,$8,$9*
0 Add four rect primitives between the rounded corners*
20,1,$1+$1,$2,$3,$4,$5,0*
20,1,$1+$1,$4,$5,$6,$7,0*
20,1,$1+$1,$6,$7,$8,$9,0*
20,1,$1+$1,$8,$9,$2,$3,0*%
G04 Aperture macros list end*
%ADD10C,0.000000*%
%ADD11C,3.000000*%
%ADD12RoundRect,0.675000X0.000010X0.000010X-0.000010X0.000010X-0.000010X-0.000010X0.000010X-0.000010X0*%
%ADD13RoundRect,0.050000X0.330200X0.635000X-0.330200X0.635000X-0.330200X-0.635000X0.330200X-0.635000X0*%
%ADD14RoundRect,0.050000X-0.635000X0.330200X-0.635000X-0.330200X0.635000X-0.330200X0.635000X0.330200X0*%
%ADD15RoundRect,0.050000X0.317500X0.635000X-0.317500X0.635000X-0.317500X-0.635000X0.317500X-0.635000X0*%
%ADD16C,0.600000*%
%ADD17RoundRect,0.050000X0.635000X-0.330200X0.635000X0.330200X-0.635000X0.330200X-0.635000X-0.330200X0*%
%ADD18C,1.979600*%
%ADD19RoundRect,0.050000X-0.317500X-0.635000X0.317500X-0.635000X0.317500X0.635000X-0.317500X0.635000X0*%
%ADD20C,3.200000*%
%ADD21C,0.750000*%
%ADD22O,1.700000X1.100000*%
%ADD23O,2.200000X1.100000*%
G04 APERTURE END LIST*
D10*
%TO.C,PWR.1*%
G36*
X116938300Y62235500D02*
G01*
X116430300Y62235500D01*
X116430300Y62716500D01*
X116938300Y62716500D01*
X116938300Y62235500D01*
G37*
G36*
X116938300Y18555500D02*
G01*
X116430300Y18555500D01*
X116430300Y19036500D01*
X116938300Y19036500D01*
X116938300Y18555500D01*
G37*
G36*
X65638300Y62235500D02*
G01*
X65130300Y62235500D01*
X65130300Y62716500D01*
X65638300Y62716500D01*
X65638300Y62235500D01*
G37*
G36*
X65638300Y18555500D02*
G01*
X65130300Y18555500D01*
X65130300Y19036500D01*
X65638300Y19036500D01*
X65638300Y18555500D01*
G37*
G36*
X14338300Y62235500D02*
G01*
X13830300Y62235500D01*
X13830300Y62716500D01*
X14338300Y62716500D01*
X14338300Y62235500D01*
G37*
%TO.C,SHLD1*%
G36*
X104364500Y56126000D02*
G01*
X103883500Y56126000D01*
X103883500Y56634000D01*
X104364500Y56634000D01*
X104364500Y56126000D01*
G37*
G36*
X104364500Y12446000D02*
G01*
X103883500Y12446000D01*
X103883500Y12954000D01*
X104364500Y12954000D01*
X104364500Y12446000D01*
G37*
G36*
X53064500Y56126000D02*
G01*
X52583500Y56126000D01*
X52583500Y56634000D01*
X53064500Y56634000D01*
X53064500Y56126000D01*
G37*
G36*
X53064500Y12446000D02*
G01*
X52583500Y12446000D01*
X52583500Y12954000D01*
X53064500Y12954000D01*
X53064500Y12446000D01*
G37*
G36*
X1764500Y56126000D02*
G01*
X1283500Y56126000D01*
X1283500Y56634000D01*
X1764500Y56634000D01*
X1764500Y56126000D01*
G37*
%TO.C,VCC.1*%
G36*
X143480500Y76153900D02*
G01*
X142999500Y76153900D01*
X142999500Y76661900D01*
X143480500Y76661900D01*
X143480500Y76153900D01*
G37*
G36*
X143480500Y32473900D02*
G01*
X142999500Y32473900D01*
X142999500Y32981900D01*
X143480500Y32981900D01*
X143480500Y32473900D01*
G37*
G36*
X92180500Y76153900D02*
G01*
X91699500Y76153900D01*
X91699500Y76661900D01*
X92180500Y76661900D01*
X92180500Y76153900D01*
G37*
G36*
X92180500Y32473900D02*
G01*
X91699500Y32473900D01*
X91699500Y32981900D01*
X92180500Y32981900D01*
X92180500Y32473900D01*
G37*
G36*
X40880500Y76153900D02*
G01*
X40399500Y76153900D01*
X40399500Y76661900D01*
X40880500Y76661900D01*
X40880500Y76153900D01*
G37*
%TO.C,JP1*%
G36*
X107934000Y74706100D02*
G01*
X107426000Y74706100D01*
X107426000Y76153900D01*
X107934000Y76153900D01*
X107934000Y74706100D01*
G37*
G36*
X107934000Y31026100D02*
G01*
X107426000Y31026100D01*
X107426000Y32473900D01*
X107934000Y32473900D01*
X107934000Y31026100D01*
G37*
G36*
X56634000Y74706100D02*
G01*
X56126000Y74706100D01*
X56126000Y76153900D01*
X56634000Y76153900D01*
X56634000Y74706100D01*
G37*
G36*
X56634000Y31026100D02*
G01*
X56126000Y31026100D01*
X56126000Y32473900D01*
X56634000Y32473900D01*
X56634000Y31026100D01*
G37*
G36*
X5334000Y74706100D02*
G01*
X4826000Y74706100D01*
X4826000Y76153900D01*
X5334000Y76153900D01*
X5334000Y74706100D01*
G37*
G36*
X5334000Y31026100D02*
G01*
X4826000Y31026100D01*
X4826000Y32473900D01*
X5334000Y32473900D01*
X5334000Y31026100D01*
G37*
%TO.C,VCC.1*%
G36*
X40880500Y32473900D02*
G01*
X40399500Y32473900D01*
X40399500Y32981900D01*
X40880500Y32981900D01*
X40880500Y32473900D01*
G37*
%TO.C,SHLD1*%
G36*
X1764500Y12446000D02*
G01*
X1283500Y12446000D01*
X1283500Y12954000D01*
X1764500Y12954000D01*
X1764500Y12446000D01*
G37*
%TO.C,PWR.1*%
G36*
X14338300Y18555500D02*
G01*
X13830300Y18555500D01*
X13830300Y19036500D01*
X14338300Y19036500D01*
X14338300Y18555500D01*
G37*
%TD*%
D11*
%TO.C,*%
X143780000Y88947500D03*
%TD*%
%TO.C,*%
X-5620000Y88947500D03*
%TD*%
%TO.C,*%
X-5620000Y-2087500D03*
%TD*%
D12*
%TO.C,TP2*%
X112760000Y55110000D03*
%TD*%
%TO.C,TP2*%
X112760000Y11430000D03*
%TD*%
%TO.C,TP2*%
X61460000Y55110000D03*
%TD*%
%TO.C,TP2*%
X61460000Y11430000D03*
%TD*%
%TO.C,TP2*%
X10160000Y55110000D03*
%TD*%
%TO.C,TP3*%
X115173000Y56380000D03*
%TD*%
%TO.C,TP3*%
X115173000Y12700000D03*
%TD*%
%TO.C,TP3*%
X63873000Y56380000D03*
%TD*%
%TO.C,TP3*%
X63873000Y12700000D03*
%TD*%
%TO.C,TP3*%
X12573000Y56380000D03*
%TD*%
D13*
%TO.C,PWR.1*%
X117205000Y62476000D03*
X116163600Y62476000D03*
%TD*%
%TO.C,PWR.1*%
X117205000Y18796000D03*
X116163600Y18796000D03*
%TD*%
%TO.C,PWR.1*%
X65905000Y62476000D03*
X64863600Y62476000D03*
%TD*%
%TO.C,PWR.1*%
X65905000Y18796000D03*
X64863600Y18796000D03*
%TD*%
%TO.C,PWR.1*%
X14605000Y62476000D03*
X13563600Y62476000D03*
%TD*%
D14*
%TO.C,SHLD1*%
X104124000Y56900700D03*
X104124000Y55859300D03*
%TD*%
%TO.C,SHLD1*%
X104124000Y13220700D03*
X104124000Y12179300D03*
%TD*%
%TO.C,SHLD1*%
X52824000Y56900700D03*
X52824000Y55859300D03*
%TD*%
%TO.C,SHLD1*%
X52824000Y13220700D03*
X52824000Y12179300D03*
%TD*%
%TO.C,SHLD1*%
X1524000Y56900700D03*
X1524000Y55859300D03*
%TD*%
D15*
%TO.C,CH342_EN.1*%
X128635000Y56380000D03*
X127822200Y56380000D03*
%TD*%
%TO.C,CH342_EN.1*%
X128635000Y12700000D03*
X127822200Y12700000D03*
%TD*%
%TO.C,CH342_EN.1*%
X77335000Y56380000D03*
X76522200Y56380000D03*
%TD*%
%TO.C,CH342_EN.1*%
X77335000Y12700000D03*
X76522200Y12700000D03*
%TD*%
%TO.C,CH342_EN.1*%
X26035000Y56380000D03*
X25222200Y56380000D03*
%TD*%
D16*
%TO.C,FID2*%
X139430000Y85590000D03*
%TD*%
%TO.C,FID2*%
X139430000Y41910000D03*
%TD*%
%TO.C,FID2*%
X88130000Y85590000D03*
%TD*%
%TO.C,FID2*%
X88130000Y41910000D03*
%TD*%
%TO.C,FID2*%
X36830000Y85590000D03*
%TD*%
D17*
%TO.C,VCC.1*%
X143240000Y75887200D03*
X143240000Y76928600D03*
D14*
X143240000Y77970000D03*
%TD*%
D17*
%TO.C,VCC.1*%
X143240000Y32207200D03*
X143240000Y33248600D03*
D14*
X143240000Y34290000D03*
%TD*%
D17*
%TO.C,VCC.1*%
X91940000Y75887200D03*
X91940000Y76928600D03*
D14*
X91940000Y77970000D03*
%TD*%
D17*
%TO.C,VCC.1*%
X91940000Y32207200D03*
X91940000Y33248600D03*
D14*
X91940000Y34290000D03*
%TD*%
D17*
%TO.C,VCC.1*%
X40640000Y75887200D03*
X40640000Y76928600D03*
D14*
X40640000Y77970000D03*
%TD*%
D12*
%TO.C,TP1*%
X112760000Y57650000D03*
%TD*%
%TO.C,TP1*%
X112760000Y13970000D03*
%TD*%
%TO.C,TP1*%
X61460000Y57650000D03*
%TD*%
%TO.C,TP1*%
X61460000Y13970000D03*
%TD*%
%TO.C,TP1*%
X10160000Y57650000D03*
%TD*%
D16*
%TO.C,FID3*%
X108950000Y44950000D03*
%TD*%
%TO.C,FID3*%
X108950000Y1270000D03*
%TD*%
%TO.C,FID3*%
X57650000Y44950000D03*
%TD*%
%TO.C,FID3*%
X57650000Y1270000D03*
%TD*%
%TO.C,FID3*%
X6350000Y44950000D03*
%TD*%
D18*
%TO.C,JP1*%
X106410000Y75430000D03*
D19*
X107172000Y75430000D03*
X108188000Y75430000D03*
D18*
X108950000Y75430000D03*
%TD*%
%TO.C,JP1*%
X106410000Y31750000D03*
D19*
X107172000Y31750000D03*
X108188000Y31750000D03*
D18*
X108950000Y31750000D03*
%TD*%
%TO.C,JP1*%
X55110000Y75430000D03*
D19*
X55872000Y75430000D03*
X56888000Y75430000D03*
D18*
X57650000Y75430000D03*
%TD*%
%TO.C,JP1*%
X55110000Y31750000D03*
D19*
X55872000Y31750000D03*
X56888000Y31750000D03*
D18*
X57650000Y31750000D03*
%TD*%
%TO.C,JP1*%
X3810000Y75430000D03*
D19*
X4572000Y75430000D03*
X5588000Y75430000D03*
D18*
X6350000Y75430000D03*
%TD*%
D20*
%TO.C,ST2*%
X143240000Y46220000D03*
%TD*%
%TO.C,ST2*%
X143240000Y2540000D03*
%TD*%
%TO.C,ST2*%
X91940000Y46220000D03*
%TD*%
%TO.C,ST2*%
X91940000Y2540000D03*
%TD*%
%TO.C,ST2*%
X40640000Y46220000D03*
%TD*%
%TO.C,ST1*%
X105100000Y46180000D03*
%TD*%
%TO.C,ST1*%
X105100000Y2500000D03*
%TD*%
%TO.C,ST1*%
X53800000Y46180000D03*
%TD*%
%TO.C,ST1*%
X53800000Y2500000D03*
%TD*%
%TO.C,ST1*%
X2500000Y46180000D03*
%TD*%
D18*
%TO.C,J4*%
X136890000Y44950000D03*
X134350000Y44950000D03*
X131810000Y44950000D03*
X129270000Y44950000D03*
X126730000Y44950000D03*
X124190000Y44950000D03*
X121650000Y44950000D03*
X119110000Y44950000D03*
X116570000Y44950000D03*
%TD*%
%TO.C,J4*%
X136890000Y1270000D03*
X134350000Y1270000D03*
X131810000Y1270000D03*
X129270000Y1270000D03*
X126730000Y1270000D03*
X124190000Y1270000D03*
X121650000Y1270000D03*
X119110000Y1270000D03*
X116570000Y1270000D03*
%TD*%
%TO.C,J4*%
X85590000Y44950000D03*
X83050000Y44950000D03*
X80510000Y44950000D03*
X77970000Y44950000D03*
X75430000Y44950000D03*
X72890000Y44950000D03*
X70350000Y44950000D03*
X67810000Y44950000D03*
X65270000Y44950000D03*
%TD*%
%TO.C,J4*%
X85590000Y1270000D03*
X83050000Y1270000D03*
X80510000Y1270000D03*
X77970000Y1270000D03*
X75430000Y1270000D03*
X72890000Y1270000D03*
X70350000Y1270000D03*
X67810000Y1270000D03*
X65270000Y1270000D03*
%TD*%
%TO.C,J4*%
X34290000Y44950000D03*
X31750000Y44950000D03*
X29210000Y44950000D03*
X26670000Y44950000D03*
X24130000Y44950000D03*
X21590000Y44950000D03*
X19050000Y44950000D03*
X16510000Y44950000D03*
X13970000Y44950000D03*
%TD*%
D21*
%TO.C,J3*%
X107505000Y59270000D03*
X107505000Y53490000D03*
D22*
X103855000Y60698000D03*
D23*
X108035000Y60698000D03*
X108035000Y52062000D03*
D22*
X103855000Y52062000D03*
%TD*%
D21*
%TO.C,J3*%
X107505000Y15590000D03*
X107505000Y9810000D03*
D22*
X103855000Y17018000D03*
D23*
X108035000Y17018000D03*
X108035000Y8382000D03*
D22*
X103855000Y8382000D03*
%TD*%
D21*
%TO.C,J3*%
X56205000Y59270000D03*
X56205000Y53490000D03*
D22*
X52555000Y60698000D03*
D23*
X56735000Y60698000D03*
X56735000Y52062000D03*
D22*
X52555000Y52062000D03*
%TD*%
D21*
%TO.C,J3*%
X56205000Y15590000D03*
X56205000Y9810000D03*
D22*
X52555000Y17018000D03*
D23*
X56735000Y17018000D03*
X56735000Y8382000D03*
D22*
X52555000Y8382000D03*
%TD*%
D21*
%TO.C,J3*%
X4905000Y59270000D03*
X4905000Y53490000D03*
D22*
X1255000Y60698000D03*
D23*
X5435000Y60698000D03*
X5435000Y52062000D03*
D22*
X1255000Y52062000D03*
%TD*%
D20*
%TO.C,ST3*%
X105140000Y84320000D03*
%TD*%
%TO.C,ST3*%
X105140000Y40640000D03*
%TD*%
%TO.C,ST3*%
X53840000Y84320000D03*
%TD*%
%TO.C,ST3*%
X53840000Y40640000D03*
%TD*%
%TO.C,ST3*%
X2540000Y84320000D03*
%TD*%
D18*
%TO.C,J2*%
X136890000Y85590000D03*
X134350000Y85590000D03*
X131810000Y85590000D03*
X129270000Y85590000D03*
X126730000Y85590000D03*
X124190000Y85590000D03*
X121650000Y85590000D03*
X119110000Y85590000D03*
X116570000Y85590000D03*
%TD*%
%TO.C,J2*%
X136890000Y41910000D03*
X134350000Y41910000D03*
X131810000Y41910000D03*
X129270000Y41910000D03*
X126730000Y41910000D03*
X124190000Y41910000D03*
X121650000Y41910000D03*
X119110000Y41910000D03*
X116570000Y41910000D03*
%TD*%
%TO.C,J2*%
X85590000Y85590000D03*
X83050000Y85590000D03*
X80510000Y85590000D03*
X77970000Y85590000D03*
X75430000Y85590000D03*
X72890000Y85590000D03*
X70350000Y85590000D03*
X67810000Y85590000D03*
X65270000Y85590000D03*
%TD*%
%TO.C,J2*%
X85590000Y41910000D03*
X83050000Y41910000D03*
X80510000Y41910000D03*
X77970000Y41910000D03*
X75430000Y41910000D03*
X72890000Y41910000D03*
X70350000Y41910000D03*
X67810000Y41910000D03*
X65270000Y41910000D03*
%TD*%
%TO.C,J2*%
X34290000Y85590000D03*
X31750000Y85590000D03*
X29210000Y85590000D03*
X26670000Y85590000D03*
X24130000Y85590000D03*
X21590000Y85590000D03*
X19050000Y85590000D03*
X16510000Y85590000D03*
X13970000Y85590000D03*
%TD*%
D20*
%TO.C,ST4*%
X143240000Y84320000D03*
%TD*%
%TO.C,ST4*%
X143240000Y40640000D03*
%TD*%
%TO.C,ST4*%
X91940000Y84320000D03*
%TD*%
%TO.C,ST4*%
X91940000Y40640000D03*
%TD*%
%TO.C,ST4*%
X40640000Y84320000D03*
%TD*%
%TO.C,ST4*%
X40640000Y40640000D03*
%TD*%
D18*
%TO.C,J2*%
X34290000Y41910000D03*
X31750000Y41910000D03*
X29210000Y41910000D03*
X26670000Y41910000D03*
X24130000Y41910000D03*
X21590000Y41910000D03*
X19050000Y41910000D03*
X16510000Y41910000D03*
X13970000Y41910000D03*
%TD*%
D20*
%TO.C,ST3*%
X2540000Y40640000D03*
%TD*%
D21*
%TO.C,J3*%
X4905000Y15590000D03*
X4905000Y9810000D03*
D22*
X1255000Y17018000D03*
D23*
X5435000Y17018000D03*
X5435000Y8382000D03*
D22*
X1255000Y8382000D03*
%TD*%
D18*
%TO.C,J4*%
X34290000Y1270000D03*
X31750000Y1270000D03*
X29210000Y1270000D03*
X26670000Y1270000D03*
X24130000Y1270000D03*
X21590000Y1270000D03*
X19050000Y1270000D03*
X16510000Y1270000D03*
X13970000Y1270000D03*
%TD*%
D20*
%TO.C,ST1*%
X2500000Y2500000D03*
%TD*%
%TO.C,ST2*%
X40640000Y2540000D03*
%TD*%
D18*
%TO.C,JP1*%
X3810000Y31750000D03*
D19*
X4572000Y31750000D03*
X5588000Y31750000D03*
D18*
X6350000Y31750000D03*
%TD*%
D16*
%TO.C,FID3*%
X6350000Y1270000D03*
%TD*%
D12*
%TO.C,TP1*%
X10160000Y13970000D03*
%TD*%
D17*
%TO.C,VCC.1*%
X40640000Y32207200D03*
X40640000Y33248600D03*
D14*
X40640000Y34290000D03*
%TD*%
D16*
%TO.C,FID2*%
X36830000Y41910000D03*
%TD*%
D15*
%TO.C,CH342_EN.1*%
X26035000Y12700000D03*
X25222200Y12700000D03*
%TD*%
D14*
%TO.C,SHLD1*%
X1524000Y13220700D03*
X1524000Y12179300D03*
%TD*%
D13*
%TO.C,PWR.1*%
X14605000Y18796000D03*
X13563600Y18796000D03*
%TD*%
D12*
%TO.C,TP3*%
X12573000Y12700000D03*
%TD*%
%TO.C,TP2*%
X10160000Y11430000D03*
%TD*%
M02*
