%TF.GenerationSoftware,KiCad,Pcbnew,9.0.5*%
%TF.CreationDate,2025-10-20T14:15:31+01:00*%
%TF.ProjectId,SparkFun_IM19_IMU_Breakout_panelized,53706172-6b46-4756-9e5f-494d31395f49,v10*%
%TF.SameCoordinates,Original*%
%TF.FileFunction,Soldermask,Top*%
%TF.FilePolarity,Negative*%
%FSLAX46Y46*%
G04 Gerber Fmt 4.6, Leading zero omitted, Abs format (unit mm)*
G04 Created by KiCad (PCBNEW 9.0.5) date 2025-10-20 14:15:31*
%MOMM*%
%LPD*%
G01*
G04 APERTURE LIST*
G04 Aperture macros list*
%AMRoundRect*
0 Rectangle with rounded corners*
0 $1 Rounding radius*
0 $2 $3 $4 $5 $6 $7 $8 $9 X,Y pos of 4 corners*
0 Add a 4 corners polygon primitive as box body*
4,1,4,$2,$3,$4,$5,$6,$7,$8,$9,$2,$3,0*
0 Add four circle primitives for the rounded corners*
1,1,$1+$1,$2,$3*
1,1,$1+$1,$4,$5*
1,1,$1+$1,$6,$7*
1,1,$1+$1,$8,$9*
0 Add four rect primitives between the rounded corners*
20,1,$1+$1,$2,$3,$4,$5,0*
20,1,$1+$1,$4,$5,$6,$7,0*
20,1,$1+$1,$6,$7,$8,$9,0*
20,1,$1+$1,$8,$9,$2,$3,0*%
G04 Aperture macros list end*
%ADD10C,3.000000*%
%ADD11C,1.979600*%
%ADD12RoundRect,0.225000X-0.225000X-0.300000X0.225000X-0.300000X0.225000X0.300000X-0.225000X0.300000X0*%
%ADD13C,3.200000*%
%ADD14RoundRect,0.050000X0.350000X-0.150000X0.350000X0.150000X-0.350000X0.150000X-0.350000X-0.150000X0*%
%ADD15RoundRect,0.250000X0.275000X-0.250000X0.275000X0.250000X-0.275000X0.250000X-0.275000X-0.250000X0*%
%ADD16RoundRect,0.050000X-0.350000X0.150000X-0.350000X-0.150000X0.350000X-0.150000X0.350000X0.150000X0*%
%ADD17RoundRect,0.050000X0.900000X-0.800000X0.900000X0.800000X-0.900000X0.800000X-0.900000X-0.800000X0*%
%ADD18RoundRect,0.250000X-0.275000X0.250000X-0.275000X-0.250000X0.275000X-0.250000X0.275000X0.250000X0*%
%ADD19C,0.750000*%
%ADD20RoundRect,0.050000X0.500000X-0.150000X0.500000X0.150000X-0.500000X0.150000X-0.500000X-0.150000X0*%
%ADD21RoundRect,0.050000X-0.500000X0.150000X-0.500000X-0.150000X0.500000X-0.150000X0.500000X0.150000X0*%
%ADD22RoundRect,0.050000X0.500000X-0.300000X0.500000X0.300000X-0.500000X0.300000X-0.500000X-0.300000X0*%
%ADD23RoundRect,0.050000X-0.500000X0.300000X-0.500000X-0.300000X0.500000X-0.300000X0.500000X0.300000X0*%
%ADD24O,1.700000X1.100000*%
%ADD25O,2.200000X1.100000*%
%ADD26RoundRect,0.250000X0.250000X0.275000X-0.250000X0.275000X-0.250000X-0.275000X0.250000X-0.275000X0*%
%ADD27RoundRect,0.050000X-0.415000X0.315000X-0.415000X-0.315000X0.415000X-0.315000X0.415000X0.315000X0*%
%ADD28RoundRect,0.050000X0.850000X-0.300000X0.850000X0.300000X-0.850000X0.300000X-0.850000X-0.300000X0*%
%ADD29RoundRect,0.050000X1.350000X-0.500000X1.350000X0.500000X-1.350000X0.500000X-1.350000X-0.500000X0*%
%ADD30RoundRect,0.243750X0.243750X0.281250X-0.243750X0.281250X-0.243750X-0.281250X0.243750X-0.281250X0*%
%ADD31RoundRect,0.087500X-0.375000X-0.087500X0.375000X-0.087500X0.375000X0.087500X-0.375000X0.087500X0*%
%ADD32RoundRect,0.087500X-0.087500X-0.375000X0.087500X-0.375000X0.087500X0.375000X-0.087500X0.375000X0*%
%ADD33RoundRect,0.050000X-1.350000X-1.350000X1.350000X-1.350000X1.350000X1.350000X-1.350000X1.350000X0*%
%ADD34RoundRect,0.225000X0.300000X-0.225000X0.300000X0.225000X-0.300000X0.225000X-0.300000X-0.225000X0*%
%ADD35RoundRect,0.050000X-0.150000X0.450000X-0.150000X-0.450000X0.150000X-0.450000X0.150000X0.450000X0*%
%ADD36RoundRect,0.050000X0.450000X0.150000X-0.450000X0.150000X-0.450000X-0.150000X0.450000X-0.150000X0*%
%ADD37RoundRect,0.050000X0.150000X-0.450000X0.150000X0.450000X-0.150000X0.450000X-0.150000X-0.450000X0*%
%ADD38RoundRect,0.050000X-0.450000X-0.150000X0.450000X-0.150000X0.450000X0.150000X-0.450000X0.150000X0*%
%ADD39RoundRect,0.050000X-0.550000X-0.800000X0.550000X-0.800000X0.550000X0.800000X-0.550000X0.800000X0*%
%ADD40RoundRect,0.050000X-0.600000X0.275000X-0.600000X-0.275000X0.600000X-0.275000X0.600000X0.275000X0*%
%ADD41RoundRect,0.050000X-0.800000X-0.400000X0.800000X-0.400000X0.800000X0.400000X-0.800000X0.400000X0*%
%ADD42RoundRect,0.050000X-1.500000X-1.500000X1.500000X-1.500000X1.500000X1.500000X-1.500000X1.500000X0*%
%ADD43C,0.600000*%
%ADD44RoundRect,0.050000X0.275000X0.600000X-0.275000X0.600000X-0.275000X-0.600000X0.275000X-0.600000X0*%
%ADD45RoundRect,0.250000X-0.250000X-0.275000X0.250000X-0.275000X0.250000X0.275000X-0.250000X0.275000X0*%
%ADD46RoundRect,0.225000X-0.300000X0.225000X-0.300000X-0.225000X0.300000X-0.225000X0.300000X0.225000X0*%
G04 APERTURE END LIST*
D10*
%TO.C,*%
X143780000Y88947500D03*
%TD*%
%TO.C,*%
X-5620000Y88947500D03*
%TD*%
%TO.C,*%
X-5620000Y-2087500D03*
%TD*%
D11*
%TO.C,JP1*%
X106410000Y75430000D03*
X108950000Y75430000D03*
%TD*%
%TO.C,JP1*%
X106410000Y31750000D03*
X108950000Y31750000D03*
%TD*%
%TO.C,JP1*%
X55110000Y75430000D03*
X57650000Y75430000D03*
%TD*%
%TO.C,JP1*%
X55110000Y31750000D03*
X57650000Y31750000D03*
%TD*%
%TO.C,JP1*%
X3810000Y75430000D03*
X6350000Y75430000D03*
%TD*%
D12*
%TO.C,R2*%
X127810000Y56380000D03*
X129460000Y56380000D03*
%TD*%
%TO.C,R2*%
X127810000Y12700000D03*
X129460000Y12700000D03*
%TD*%
%TO.C,R2*%
X76510000Y56380000D03*
X78160000Y56380000D03*
%TD*%
%TO.C,R2*%
X76510000Y12700000D03*
X78160000Y12700000D03*
%TD*%
%TO.C,R2*%
X25210000Y56380000D03*
X26860000Y56380000D03*
%TD*%
D13*
%TO.C,ST2*%
X143240000Y46220000D03*
%TD*%
%TO.C,ST2*%
X143240000Y2540000D03*
%TD*%
%TO.C,ST2*%
X91940000Y46220000D03*
%TD*%
%TO.C,ST2*%
X91940000Y2540000D03*
%TD*%
%TO.C,ST2*%
X40640000Y46220000D03*
%TD*%
D12*
%TO.C,R4*%
X115872000Y62476000D03*
X117522000Y62476000D03*
%TD*%
%TO.C,R4*%
X115872000Y18796000D03*
X117522000Y18796000D03*
%TD*%
%TO.C,R4*%
X64572000Y62476000D03*
X66222000Y62476000D03*
%TD*%
%TO.C,R4*%
X64572000Y18796000D03*
X66222000Y18796000D03*
%TD*%
%TO.C,R4*%
X13272000Y62476000D03*
X14922000Y62476000D03*
%TD*%
D14*
%TO.C,D7*%
X139722000Y47094000D03*
X139722000Y47744000D03*
X139722000Y48394000D03*
X138122000Y48394000D03*
X138122000Y47094000D03*
%TD*%
%TO.C,D7*%
X139722000Y3414000D03*
X139722000Y4064000D03*
X139722000Y4714000D03*
X138122000Y4714000D03*
X138122000Y3414000D03*
%TD*%
%TO.C,D7*%
X88422000Y47094000D03*
X88422000Y47744000D03*
X88422000Y48394000D03*
X86822000Y48394000D03*
X86822000Y47094000D03*
%TD*%
%TO.C,D7*%
X88422000Y3414000D03*
X88422000Y4064000D03*
X88422000Y4714000D03*
X86822000Y4714000D03*
X86822000Y3414000D03*
%TD*%
%TO.C,D7*%
X37122000Y47094000D03*
X37122000Y47744000D03*
X37122000Y48394000D03*
X35522000Y48394000D03*
X35522000Y47094000D03*
%TD*%
D15*
%TO.C,C4*%
X117459000Y64635000D03*
X117459000Y66185000D03*
%TD*%
%TO.C,C4*%
X117459000Y20955000D03*
X117459000Y22505000D03*
%TD*%
%TO.C,C4*%
X66159000Y64635000D03*
X66159000Y66185000D03*
%TD*%
%TO.C,C4*%
X66159000Y20955000D03*
X66159000Y22505000D03*
%TD*%
%TO.C,C4*%
X14859000Y64635000D03*
X14859000Y66185000D03*
%TD*%
D16*
%TO.C,D5*%
X113738000Y83446000D03*
X113738000Y82796000D03*
X113738000Y82146000D03*
X115338000Y82146000D03*
X115338000Y83446000D03*
%TD*%
%TO.C,D5*%
X113738000Y39766000D03*
X113738000Y39116000D03*
X113738000Y38466000D03*
X115338000Y38466000D03*
X115338000Y39766000D03*
%TD*%
%TO.C,D5*%
X62438000Y83446000D03*
X62438000Y82796000D03*
X62438000Y82146000D03*
X64038000Y82146000D03*
X64038000Y83446000D03*
%TD*%
%TO.C,D5*%
X62438000Y39766000D03*
X62438000Y39116000D03*
X62438000Y38466000D03*
X64038000Y38466000D03*
X64038000Y39766000D03*
%TD*%
%TO.C,D5*%
X11138000Y83446000D03*
X11138000Y82796000D03*
X11138000Y82146000D03*
X12738000Y82146000D03*
X12738000Y83446000D03*
%TD*%
D13*
%TO.C,ST1*%
X105100000Y46180000D03*
%TD*%
%TO.C,ST1*%
X105100000Y2500000D03*
%TD*%
%TO.C,ST1*%
X53800000Y46180000D03*
%TD*%
%TO.C,ST1*%
X53800000Y2500000D03*
%TD*%
%TO.C,ST1*%
X2500000Y46180000D03*
%TD*%
D15*
%TO.C,C2*%
X115808000Y64622000D03*
X115808000Y66172000D03*
%TD*%
%TO.C,C2*%
X115808000Y20942000D03*
X115808000Y22492000D03*
%TD*%
%TO.C,C2*%
X64508000Y64622000D03*
X64508000Y66172000D03*
%TD*%
%TO.C,C2*%
X64508000Y20942000D03*
X64508000Y22492000D03*
%TD*%
%TO.C,C2*%
X13208000Y64622000D03*
X13208000Y66172000D03*
%TD*%
D11*
%TO.C,J4*%
X136890000Y44950000D03*
X134350000Y44950000D03*
X131810000Y44950000D03*
X129270000Y44950000D03*
X126730000Y44950000D03*
X124190000Y44950000D03*
X121650000Y44950000D03*
X119110000Y44950000D03*
X116570000Y44950000D03*
%TD*%
%TO.C,J4*%
X136890000Y1270000D03*
X134350000Y1270000D03*
X131810000Y1270000D03*
X129270000Y1270000D03*
X126730000Y1270000D03*
X124190000Y1270000D03*
X121650000Y1270000D03*
X119110000Y1270000D03*
X116570000Y1270000D03*
%TD*%
%TO.C,J4*%
X85590000Y44950000D03*
X83050000Y44950000D03*
X80510000Y44950000D03*
X77970000Y44950000D03*
X75430000Y44950000D03*
X72890000Y44950000D03*
X70350000Y44950000D03*
X67810000Y44950000D03*
X65270000Y44950000D03*
%TD*%
%TO.C,J4*%
X85590000Y1270000D03*
X83050000Y1270000D03*
X80510000Y1270000D03*
X77970000Y1270000D03*
X75430000Y1270000D03*
X72890000Y1270000D03*
X70350000Y1270000D03*
X67810000Y1270000D03*
X65270000Y1270000D03*
%TD*%
%TO.C,J4*%
X34290000Y44950000D03*
X31750000Y44950000D03*
X29210000Y44950000D03*
X26670000Y44950000D03*
X24130000Y44950000D03*
X21590000Y44950000D03*
X19050000Y44950000D03*
X16510000Y44950000D03*
X13970000Y44950000D03*
%TD*%
D17*
%TO.C,F1*%
X106410000Y69585000D03*
X106410000Y72385000D03*
%TD*%
%TO.C,F1*%
X106410000Y25905000D03*
X106410000Y28705000D03*
%TD*%
%TO.C,F1*%
X55110000Y69585000D03*
X55110000Y72385000D03*
%TD*%
%TO.C,F1*%
X55110000Y25905000D03*
X55110000Y28705000D03*
%TD*%
%TO.C,F1*%
X3810000Y69585000D03*
X3810000Y72385000D03*
%TD*%
D18*
%TO.C,C5*%
X118221000Y52710000D03*
X118221000Y51160000D03*
%TD*%
%TO.C,C5*%
X118221000Y9030000D03*
X118221000Y7480000D03*
%TD*%
%TO.C,C5*%
X66921000Y52710000D03*
X66921000Y51160000D03*
%TD*%
%TO.C,C5*%
X66921000Y9030000D03*
X66921000Y7480000D03*
%TD*%
%TO.C,C5*%
X15621000Y52710000D03*
X15621000Y51160000D03*
%TD*%
D19*
%TO.C,J3*%
X107505000Y59270000D03*
X107505000Y53490000D03*
D20*
X108610000Y57630000D03*
X108610000Y56630000D03*
D21*
X108610000Y56130000D03*
X108610000Y55130000D03*
X108610000Y54630000D03*
X108610000Y55630000D03*
D20*
X108610000Y57130000D03*
X108610000Y58130000D03*
D22*
X108610000Y59605000D03*
D23*
X108610000Y53155000D03*
D24*
X103855000Y60698000D03*
D25*
X108035000Y60698000D03*
X108035000Y52062000D03*
D24*
X103855000Y52062000D03*
D22*
X108610000Y58830000D03*
D23*
X108610000Y53930000D03*
%TD*%
D19*
%TO.C,J3*%
X107505000Y15590000D03*
X107505000Y9810000D03*
D20*
X108610000Y13950000D03*
X108610000Y12950000D03*
D21*
X108610000Y12450000D03*
X108610000Y11450000D03*
X108610000Y10950000D03*
X108610000Y11950000D03*
D20*
X108610000Y13450000D03*
X108610000Y14450000D03*
D22*
X108610000Y15925000D03*
D23*
X108610000Y9475000D03*
D24*
X103855000Y17018000D03*
D25*
X108035000Y17018000D03*
X108035000Y8382000D03*
D24*
X103855000Y8382000D03*
D22*
X108610000Y15150000D03*
D23*
X108610000Y10250000D03*
%TD*%
D19*
%TO.C,J3*%
X56205000Y59270000D03*
X56205000Y53490000D03*
D20*
X57310000Y57630000D03*
X57310000Y56630000D03*
D21*
X57310000Y56130000D03*
X57310000Y55130000D03*
X57310000Y54630000D03*
X57310000Y55630000D03*
D20*
X57310000Y57130000D03*
X57310000Y58130000D03*
D22*
X57310000Y59605000D03*
D23*
X57310000Y53155000D03*
D24*
X52555000Y60698000D03*
D25*
X56735000Y60698000D03*
X56735000Y52062000D03*
D24*
X52555000Y52062000D03*
D22*
X57310000Y58830000D03*
D23*
X57310000Y53930000D03*
%TD*%
D19*
%TO.C,J3*%
X56205000Y15590000D03*
X56205000Y9810000D03*
D20*
X57310000Y13950000D03*
X57310000Y12950000D03*
D21*
X57310000Y12450000D03*
X57310000Y11450000D03*
X57310000Y10950000D03*
X57310000Y11950000D03*
D20*
X57310000Y13450000D03*
X57310000Y14450000D03*
D22*
X57310000Y15925000D03*
D23*
X57310000Y9475000D03*
D24*
X52555000Y17018000D03*
D25*
X56735000Y17018000D03*
X56735000Y8382000D03*
D24*
X52555000Y8382000D03*
D22*
X57310000Y15150000D03*
D23*
X57310000Y10250000D03*
%TD*%
D19*
%TO.C,J3*%
X4905000Y59270000D03*
X4905000Y53490000D03*
D20*
X6010000Y57630000D03*
X6010000Y56630000D03*
D21*
X6010000Y56130000D03*
X6010000Y55130000D03*
X6010000Y54630000D03*
X6010000Y55630000D03*
D20*
X6010000Y57130000D03*
X6010000Y58130000D03*
D22*
X6010000Y59605000D03*
D23*
X6010000Y53155000D03*
D24*
X1255000Y60698000D03*
D25*
X5435000Y60698000D03*
X5435000Y52062000D03*
D24*
X1255000Y52062000D03*
D22*
X6010000Y58830000D03*
D23*
X6010000Y53930000D03*
%TD*%
D26*
%TO.C,C9*%
X113535000Y72382000D03*
X111985000Y72382000D03*
%TD*%
%TO.C,C9*%
X113535000Y28702000D03*
X111985000Y28702000D03*
%TD*%
%TO.C,C9*%
X62235000Y72382000D03*
X60685000Y72382000D03*
%TD*%
%TO.C,C9*%
X62235000Y28702000D03*
X60685000Y28702000D03*
%TD*%
%TO.C,C9*%
X10935000Y72382000D03*
X9385000Y72382000D03*
%TD*%
D27*
%TO.C,D2*%
X105267000Y66547000D03*
X105267000Y64247000D03*
%TD*%
%TO.C,D2*%
X105267000Y22867000D03*
X105267000Y20567000D03*
%TD*%
%TO.C,D2*%
X53967000Y66547000D03*
X53967000Y64247000D03*
%TD*%
%TO.C,D2*%
X53967000Y22867000D03*
X53967000Y20567000D03*
%TD*%
%TO.C,D2*%
X2667000Y66547000D03*
X2667000Y64247000D03*
%TD*%
D12*
%TO.C,R3*%
X137335000Y79875000D03*
X138985000Y79875000D03*
%TD*%
%TO.C,R3*%
X137335000Y36195000D03*
X138985000Y36195000D03*
%TD*%
%TO.C,R3*%
X86035000Y79875000D03*
X87685000Y79875000D03*
%TD*%
%TO.C,R3*%
X86035000Y36195000D03*
X87685000Y36195000D03*
%TD*%
%TO.C,R3*%
X34735000Y79875000D03*
X36385000Y79875000D03*
%TD*%
D28*
%TO.C,J1*%
X140855000Y74825000D03*
X140855000Y76075000D03*
X140855000Y77325000D03*
X140855000Y78575000D03*
D29*
X144055000Y72950000D03*
X144055000Y80450000D03*
%TD*%
D28*
%TO.C,J1*%
X140855000Y31145000D03*
X140855000Y32395000D03*
X140855000Y33645000D03*
X140855000Y34895000D03*
D29*
X144055000Y29270000D03*
X144055000Y36770000D03*
%TD*%
D28*
%TO.C,J1*%
X89555000Y74825000D03*
X89555000Y76075000D03*
X89555000Y77325000D03*
X89555000Y78575000D03*
D29*
X92755000Y72950000D03*
X92755000Y80450000D03*
%TD*%
D28*
%TO.C,J1*%
X89555000Y31145000D03*
X89555000Y32395000D03*
X89555000Y33645000D03*
X89555000Y34895000D03*
D29*
X92755000Y29270000D03*
X92755000Y36770000D03*
%TD*%
D28*
%TO.C,J1*%
X38255000Y74825000D03*
X38255000Y76075000D03*
X38255000Y77325000D03*
X38255000Y78575000D03*
D29*
X41455000Y72950000D03*
X41455000Y80450000D03*
%TD*%
D30*
%TO.C,D3*%
X117484500Y60825000D03*
X115909500Y60825000D03*
%TD*%
%TO.C,D3*%
X117484500Y17145000D03*
X115909500Y17145000D03*
%TD*%
%TO.C,D3*%
X66184500Y60825000D03*
X64609500Y60825000D03*
%TD*%
%TO.C,D3*%
X66184500Y17145000D03*
X64609500Y17145000D03*
%TD*%
%TO.C,D3*%
X14884500Y60825000D03*
X13309500Y60825000D03*
%TD*%
D26*
%TO.C,C10*%
X113535000Y66286000D03*
X111985000Y66286000D03*
%TD*%
%TO.C,C10*%
X113535000Y22606000D03*
X111985000Y22606000D03*
%TD*%
%TO.C,C10*%
X62235000Y66286000D03*
X60685000Y66286000D03*
%TD*%
%TO.C,C10*%
X62235000Y22606000D03*
X60685000Y22606000D03*
%TD*%
%TO.C,C10*%
X10935000Y66286000D03*
X9385000Y66286000D03*
%TD*%
D31*
%TO.C,U1*%
X116512500Y57630000D03*
X116512500Y57130000D03*
X116512500Y56630000D03*
X116512500Y56130000D03*
X116512500Y55630000D03*
X116512500Y55130000D03*
D32*
X117225000Y54417500D03*
X117725000Y54417500D03*
X118225000Y54417500D03*
X118725000Y54417500D03*
X119225000Y54417500D03*
X119725000Y54417500D03*
D31*
X120437500Y55130000D03*
X120437500Y55630000D03*
X120437500Y56130000D03*
X120437500Y56630000D03*
X120437500Y57130000D03*
X120437500Y57630000D03*
D32*
X119725000Y58342500D03*
X119225000Y58342500D03*
X118725000Y58342500D03*
X118225000Y58342500D03*
X117725000Y58342500D03*
X117225000Y58342500D03*
D33*
X118475000Y56380000D03*
%TD*%
D31*
%TO.C,U1*%
X116512500Y13950000D03*
X116512500Y13450000D03*
X116512500Y12950000D03*
X116512500Y12450000D03*
X116512500Y11950000D03*
X116512500Y11450000D03*
D32*
X117225000Y10737500D03*
X117725000Y10737500D03*
X118225000Y10737500D03*
X118725000Y10737500D03*
X119225000Y10737500D03*
X119725000Y10737500D03*
D31*
X120437500Y11450000D03*
X120437500Y11950000D03*
X120437500Y12450000D03*
X120437500Y12950000D03*
X120437500Y13450000D03*
X120437500Y13950000D03*
D32*
X119725000Y14662500D03*
X119225000Y14662500D03*
X118725000Y14662500D03*
X118225000Y14662500D03*
X117725000Y14662500D03*
X117225000Y14662500D03*
D33*
X118475000Y12700000D03*
%TD*%
D31*
%TO.C,U1*%
X65212500Y57630000D03*
X65212500Y57130000D03*
X65212500Y56630000D03*
X65212500Y56130000D03*
X65212500Y55630000D03*
X65212500Y55130000D03*
D32*
X65925000Y54417500D03*
X66425000Y54417500D03*
X66925000Y54417500D03*
X67425000Y54417500D03*
X67925000Y54417500D03*
X68425000Y54417500D03*
D31*
X69137500Y55130000D03*
X69137500Y55630000D03*
X69137500Y56130000D03*
X69137500Y56630000D03*
X69137500Y57130000D03*
X69137500Y57630000D03*
D32*
X68425000Y58342500D03*
X67925000Y58342500D03*
X67425000Y58342500D03*
X66925000Y58342500D03*
X66425000Y58342500D03*
X65925000Y58342500D03*
D33*
X67175000Y56380000D03*
%TD*%
D31*
%TO.C,U1*%
X65212500Y13950000D03*
X65212500Y13450000D03*
X65212500Y12950000D03*
X65212500Y12450000D03*
X65212500Y11950000D03*
X65212500Y11450000D03*
D32*
X65925000Y10737500D03*
X66425000Y10737500D03*
X66925000Y10737500D03*
X67425000Y10737500D03*
X67925000Y10737500D03*
X68425000Y10737500D03*
D31*
X69137500Y11450000D03*
X69137500Y11950000D03*
X69137500Y12450000D03*
X69137500Y12950000D03*
X69137500Y13450000D03*
X69137500Y13950000D03*
D32*
X68425000Y14662500D03*
X67925000Y14662500D03*
X67425000Y14662500D03*
X66925000Y14662500D03*
X66425000Y14662500D03*
X65925000Y14662500D03*
D33*
X67175000Y12700000D03*
%TD*%
D31*
%TO.C,U1*%
X13912500Y57630000D03*
X13912500Y57130000D03*
X13912500Y56630000D03*
X13912500Y56130000D03*
X13912500Y55630000D03*
X13912500Y55130000D03*
D32*
X14625000Y54417500D03*
X15125000Y54417500D03*
X15625000Y54417500D03*
X16125000Y54417500D03*
X16625000Y54417500D03*
X17125000Y54417500D03*
D31*
X17837500Y55130000D03*
X17837500Y55630000D03*
X17837500Y56130000D03*
X17837500Y56630000D03*
X17837500Y57130000D03*
X17837500Y57630000D03*
D32*
X17125000Y58342500D03*
X16625000Y58342500D03*
X16125000Y58342500D03*
X15625000Y58342500D03*
X15125000Y58342500D03*
X14625000Y58342500D03*
D33*
X15875000Y56380000D03*
%TD*%
D34*
%TO.C,R1*%
X108950000Y70160000D03*
X108950000Y71810000D03*
%TD*%
%TO.C,R1*%
X108950000Y26480000D03*
X108950000Y28130000D03*
%TD*%
%TO.C,R1*%
X57650000Y70160000D03*
X57650000Y71810000D03*
%TD*%
%TO.C,R1*%
X57650000Y26480000D03*
X57650000Y28130000D03*
%TD*%
%TO.C,R1*%
X6350000Y70160000D03*
X6350000Y71810000D03*
%TD*%
D18*
%TO.C,C6*%
X114919000Y52710000D03*
X114919000Y51160000D03*
%TD*%
%TO.C,C6*%
X114919000Y9030000D03*
X114919000Y7480000D03*
%TD*%
%TO.C,C6*%
X63619000Y52710000D03*
X63619000Y51160000D03*
%TD*%
%TO.C,C6*%
X63619000Y9030000D03*
X63619000Y7480000D03*
%TD*%
%TO.C,C6*%
X12319000Y52710000D03*
X12319000Y51160000D03*
%TD*%
D26*
%TO.C,C12*%
X113535000Y64635000D03*
X111985000Y64635000D03*
%TD*%
%TO.C,C12*%
X113535000Y20955000D03*
X111985000Y20955000D03*
%TD*%
%TO.C,C12*%
X62235000Y64635000D03*
X60685000Y64635000D03*
%TD*%
%TO.C,C12*%
X62235000Y20955000D03*
X60685000Y20955000D03*
%TD*%
%TO.C,C12*%
X10935000Y64635000D03*
X9385000Y64635000D03*
%TD*%
D18*
%TO.C,C7*%
X116570000Y52710000D03*
X116570000Y51160000D03*
%TD*%
%TO.C,C7*%
X116570000Y9030000D03*
X116570000Y7480000D03*
%TD*%
%TO.C,C7*%
X65270000Y52710000D03*
X65270000Y51160000D03*
%TD*%
%TO.C,C7*%
X65270000Y9030000D03*
X65270000Y7480000D03*
%TD*%
%TO.C,C7*%
X13970000Y52710000D03*
X13970000Y51160000D03*
%TD*%
D13*
%TO.C,ST3*%
X105140000Y84320000D03*
%TD*%
%TO.C,ST3*%
X105140000Y40640000D03*
%TD*%
%TO.C,ST3*%
X53840000Y84320000D03*
%TD*%
%TO.C,ST3*%
X53840000Y40640000D03*
%TD*%
%TO.C,ST3*%
X2540000Y84320000D03*
%TD*%
D35*
%TO.C,U4*%
X123940000Y57880000D03*
D36*
X122940000Y57380000D03*
X122940000Y56880000D03*
X122940000Y56380000D03*
X122940000Y55880000D03*
X122940000Y55380000D03*
D37*
X123940000Y54880000D03*
X124440000Y54880000D03*
D38*
X125440000Y55380000D03*
X125440000Y55880000D03*
X125440000Y56380000D03*
X125440000Y56880000D03*
X125440000Y57380000D03*
D35*
X124440000Y57880000D03*
D39*
X124190000Y56380000D03*
%TD*%
D35*
%TO.C,U4*%
X123940000Y14200000D03*
D36*
X122940000Y13700000D03*
X122940000Y13200000D03*
X122940000Y12700000D03*
X122940000Y12200000D03*
X122940000Y11700000D03*
D37*
X123940000Y11200000D03*
X124440000Y11200000D03*
D38*
X125440000Y11700000D03*
X125440000Y12200000D03*
X125440000Y12700000D03*
X125440000Y13200000D03*
X125440000Y13700000D03*
D35*
X124440000Y14200000D03*
D39*
X124190000Y12700000D03*
%TD*%
D35*
%TO.C,U4*%
X72640000Y57880000D03*
D36*
X71640000Y57380000D03*
X71640000Y56880000D03*
X71640000Y56380000D03*
X71640000Y55880000D03*
X71640000Y55380000D03*
D37*
X72640000Y54880000D03*
X73140000Y54880000D03*
D38*
X74140000Y55380000D03*
X74140000Y55880000D03*
X74140000Y56380000D03*
X74140000Y56880000D03*
X74140000Y57380000D03*
D35*
X73140000Y57880000D03*
D39*
X72890000Y56380000D03*
%TD*%
D35*
%TO.C,U4*%
X72640000Y14200000D03*
D36*
X71640000Y13700000D03*
X71640000Y13200000D03*
X71640000Y12700000D03*
X71640000Y12200000D03*
X71640000Y11700000D03*
D37*
X72640000Y11200000D03*
X73140000Y11200000D03*
D38*
X74140000Y11700000D03*
X74140000Y12200000D03*
X74140000Y12700000D03*
X74140000Y13200000D03*
X74140000Y13700000D03*
D35*
X73140000Y14200000D03*
D39*
X72890000Y12700000D03*
%TD*%
D35*
%TO.C,U4*%
X21340000Y57880000D03*
D36*
X20340000Y57380000D03*
X20340000Y56880000D03*
X20340000Y56380000D03*
X20340000Y55880000D03*
X20340000Y55380000D03*
D37*
X21340000Y54880000D03*
X21840000Y54880000D03*
D38*
X22840000Y55380000D03*
X22840000Y55880000D03*
X22840000Y56380000D03*
X22840000Y56880000D03*
X22840000Y57380000D03*
D35*
X21840000Y57880000D03*
D39*
X21590000Y56380000D03*
%TD*%
D18*
%TO.C,C3*%
X117459000Y70109000D03*
X117459000Y68559000D03*
%TD*%
%TO.C,C3*%
X117459000Y26429000D03*
X117459000Y24879000D03*
%TD*%
%TO.C,C3*%
X66159000Y70109000D03*
X66159000Y68559000D03*
%TD*%
%TO.C,C3*%
X66159000Y26429000D03*
X66159000Y24879000D03*
%TD*%
%TO.C,C3*%
X14859000Y70109000D03*
X14859000Y68559000D03*
%TD*%
D27*
%TO.C,D1*%
X107553000Y66547000D03*
X107553000Y64247000D03*
%TD*%
%TO.C,D1*%
X107553000Y22867000D03*
X107553000Y20567000D03*
%TD*%
%TO.C,D1*%
X56253000Y66547000D03*
X56253000Y64247000D03*
%TD*%
%TO.C,D1*%
X56253000Y22867000D03*
X56253000Y20567000D03*
%TD*%
%TO.C,D1*%
X4953000Y66547000D03*
X4953000Y64247000D03*
%TD*%
D40*
%TO.C,D6*%
X111459900Y57330000D03*
X111459900Y56380000D03*
X111459900Y55430000D03*
X114060100Y55430000D03*
X114060000Y56380000D03*
X114060100Y57330000D03*
%TD*%
%TO.C,D6*%
X111459900Y13650000D03*
X111459900Y12700000D03*
X111459900Y11750000D03*
X114060100Y11750000D03*
X114060000Y12700000D03*
X114060100Y13650000D03*
%TD*%
%TO.C,D6*%
X60159900Y57330000D03*
X60159900Y56380000D03*
X60159900Y55430000D03*
X62760100Y55430000D03*
X62760000Y56380000D03*
X62760100Y57330000D03*
%TD*%
%TO.C,D6*%
X60159900Y13650000D03*
X60159900Y12700000D03*
X60159900Y11750000D03*
X62760100Y11750000D03*
X62760000Y12700000D03*
X62760100Y13650000D03*
%TD*%
%TO.C,D6*%
X8859900Y57330000D03*
X8859900Y56380000D03*
X8859900Y55430000D03*
X11460100Y55430000D03*
X11460000Y56380000D03*
X11460100Y57330000D03*
%TD*%
D41*
%TO.C,U2*%
X119510000Y76705000D03*
X119510000Y75435000D03*
X119510000Y74165000D03*
X119510000Y72895000D03*
X119510000Y71625000D03*
X119510000Y70355000D03*
X119510000Y69085000D03*
X119510000Y67815000D03*
X119510000Y66545000D03*
X119510000Y65275000D03*
X134310000Y65275000D03*
X134310000Y66545000D03*
X134310000Y67815000D03*
X134310000Y69085000D03*
X134310000Y70355000D03*
X134310000Y71625000D03*
X134310000Y72895000D03*
X134310000Y74165000D03*
X134310000Y75435000D03*
X134310000Y76705000D03*
D42*
X127430000Y72510000D03*
%TD*%
D41*
%TO.C,U2*%
X119510000Y33025000D03*
X119510000Y31755000D03*
X119510000Y30485000D03*
X119510000Y29215000D03*
X119510000Y27945000D03*
X119510000Y26675000D03*
X119510000Y25405000D03*
X119510000Y24135000D03*
X119510000Y22865000D03*
X119510000Y21595000D03*
X134310000Y21595000D03*
X134310000Y22865000D03*
X134310000Y24135000D03*
X134310000Y25405000D03*
X134310000Y26675000D03*
X134310000Y27945000D03*
X134310000Y29215000D03*
X134310000Y30485000D03*
X134310000Y31755000D03*
X134310000Y33025000D03*
D42*
X127430000Y28830000D03*
%TD*%
D41*
%TO.C,U2*%
X68210000Y76705000D03*
X68210000Y75435000D03*
X68210000Y74165000D03*
X68210000Y72895000D03*
X68210000Y71625000D03*
X68210000Y70355000D03*
X68210000Y69085000D03*
X68210000Y67815000D03*
X68210000Y66545000D03*
X68210000Y65275000D03*
X83010000Y65275000D03*
X83010000Y66545000D03*
X83010000Y67815000D03*
X83010000Y69085000D03*
X83010000Y70355000D03*
X83010000Y71625000D03*
X83010000Y72895000D03*
X83010000Y74165000D03*
X83010000Y75435000D03*
X83010000Y76705000D03*
D42*
X76130000Y72510000D03*
%TD*%
D41*
%TO.C,U2*%
X68210000Y33025000D03*
X68210000Y31755000D03*
X68210000Y30485000D03*
X68210000Y29215000D03*
X68210000Y27945000D03*
X68210000Y26675000D03*
X68210000Y25405000D03*
X68210000Y24135000D03*
X68210000Y22865000D03*
X68210000Y21595000D03*
X83010000Y21595000D03*
X83010000Y22865000D03*
X83010000Y24135000D03*
X83010000Y25405000D03*
X83010000Y26675000D03*
X83010000Y27945000D03*
X83010000Y29215000D03*
X83010000Y30485000D03*
X83010000Y31755000D03*
X83010000Y33025000D03*
D42*
X76130000Y28830000D03*
%TD*%
D41*
%TO.C,U2*%
X16910000Y76705000D03*
X16910000Y75435000D03*
X16910000Y74165000D03*
X16910000Y72895000D03*
X16910000Y71625000D03*
X16910000Y70355000D03*
X16910000Y69085000D03*
X16910000Y67815000D03*
X16910000Y66545000D03*
X16910000Y65275000D03*
X31710000Y65275000D03*
X31710000Y66545000D03*
X31710000Y67815000D03*
X31710000Y69085000D03*
X31710000Y70355000D03*
X31710000Y71625000D03*
X31710000Y72895000D03*
X31710000Y74165000D03*
X31710000Y75435000D03*
X31710000Y76705000D03*
D42*
X24830000Y72510000D03*
%TD*%
D18*
%TO.C,C1*%
X115808000Y70109000D03*
X115808000Y68559000D03*
%TD*%
%TO.C,C1*%
X115808000Y26429000D03*
X115808000Y24879000D03*
%TD*%
%TO.C,C1*%
X64508000Y70109000D03*
X64508000Y68559000D03*
%TD*%
%TO.C,C1*%
X64508000Y26429000D03*
X64508000Y24879000D03*
%TD*%
%TO.C,C1*%
X13208000Y70109000D03*
X13208000Y68559000D03*
%TD*%
D11*
%TO.C,J2*%
X136890000Y85590000D03*
X134350000Y85590000D03*
X131810000Y85590000D03*
X129270000Y85590000D03*
X126730000Y85590000D03*
X124190000Y85590000D03*
X121650000Y85590000D03*
X119110000Y85590000D03*
X116570000Y85590000D03*
%TD*%
%TO.C,J2*%
X136890000Y41910000D03*
X134350000Y41910000D03*
X131810000Y41910000D03*
X129270000Y41910000D03*
X126730000Y41910000D03*
X124190000Y41910000D03*
X121650000Y41910000D03*
X119110000Y41910000D03*
X116570000Y41910000D03*
%TD*%
%TO.C,J2*%
X85590000Y85590000D03*
X83050000Y85590000D03*
X80510000Y85590000D03*
X77970000Y85590000D03*
X75430000Y85590000D03*
X72890000Y85590000D03*
X70350000Y85590000D03*
X67810000Y85590000D03*
X65270000Y85590000D03*
%TD*%
%TO.C,J2*%
X85590000Y41910000D03*
X83050000Y41910000D03*
X80510000Y41910000D03*
X77970000Y41910000D03*
X75430000Y41910000D03*
X72890000Y41910000D03*
X70350000Y41910000D03*
X67810000Y41910000D03*
X65270000Y41910000D03*
%TD*%
%TO.C,J2*%
X34290000Y85590000D03*
X31750000Y85590000D03*
X29210000Y85590000D03*
X26670000Y85590000D03*
X24130000Y85590000D03*
X21590000Y85590000D03*
X19050000Y85590000D03*
X16510000Y85590000D03*
X13970000Y85590000D03*
%TD*%
D14*
%TO.C,D4*%
X139722000Y82146000D03*
X139722000Y82796000D03*
X139722000Y83446000D03*
X138122000Y83446000D03*
X138122000Y82146000D03*
%TD*%
%TO.C,D4*%
X139722000Y38466000D03*
X139722000Y39116000D03*
X139722000Y39766000D03*
X138122000Y39766000D03*
X138122000Y38466000D03*
%TD*%
%TO.C,D4*%
X88422000Y82146000D03*
X88422000Y82796000D03*
X88422000Y83446000D03*
X86822000Y83446000D03*
X86822000Y82146000D03*
%TD*%
%TO.C,D4*%
X88422000Y38466000D03*
X88422000Y39116000D03*
X88422000Y39766000D03*
X86822000Y39766000D03*
X86822000Y38466000D03*
%TD*%
%TO.C,D4*%
X37122000Y82146000D03*
X37122000Y82796000D03*
X37122000Y83446000D03*
X35522000Y83446000D03*
X35522000Y82146000D03*
%TD*%
D26*
%TO.C,C8*%
X113535000Y74033000D03*
X111985000Y74033000D03*
%TD*%
%TO.C,C8*%
X113535000Y30353000D03*
X111985000Y30353000D03*
%TD*%
%TO.C,C8*%
X62235000Y74033000D03*
X60685000Y74033000D03*
%TD*%
%TO.C,C8*%
X62235000Y30353000D03*
X60685000Y30353000D03*
%TD*%
%TO.C,C8*%
X10935000Y74033000D03*
X9385000Y74033000D03*
%TD*%
D43*
%TO.C,FID1*%
X108950000Y44950000D03*
%TD*%
%TO.C,FID1*%
X108950000Y1270000D03*
%TD*%
%TO.C,FID1*%
X57650000Y44950000D03*
%TD*%
%TO.C,FID1*%
X57650000Y1270000D03*
%TD*%
%TO.C,FID1*%
X6350000Y44950000D03*
%TD*%
D26*
%TO.C,C11*%
X138935000Y73525000D03*
X137385000Y73525000D03*
%TD*%
%TO.C,C11*%
X138935000Y29845000D03*
X137385000Y29845000D03*
%TD*%
%TO.C,C11*%
X87635000Y73525000D03*
X86085000Y73525000D03*
%TD*%
%TO.C,C11*%
X87635000Y29845000D03*
X86085000Y29845000D03*
%TD*%
%TO.C,C11*%
X36335000Y73525000D03*
X34785000Y73525000D03*
%TD*%
D44*
%TO.C,U3*%
X113710000Y70634100D03*
X112760000Y70634100D03*
X111810000Y70634100D03*
X111810000Y68033900D03*
X113710000Y68033900D03*
%TD*%
%TO.C,U3*%
X113710000Y26954100D03*
X112760000Y26954100D03*
X111810000Y26954100D03*
X111810000Y24353900D03*
X113710000Y24353900D03*
%TD*%
%TO.C,U3*%
X62410000Y70634100D03*
X61460000Y70634100D03*
X60510000Y70634100D03*
X60510000Y68033900D03*
X62410000Y68033900D03*
%TD*%
%TO.C,U3*%
X62410000Y26954100D03*
X61460000Y26954100D03*
X60510000Y26954100D03*
X60510000Y24353900D03*
X62410000Y24353900D03*
%TD*%
%TO.C,U3*%
X11110000Y70634100D03*
X10160000Y70634100D03*
X9210000Y70634100D03*
X9210000Y68033900D03*
X11110000Y68033900D03*
%TD*%
D43*
%TO.C,FID4*%
X139430000Y85590000D03*
%TD*%
%TO.C,FID4*%
X139430000Y41910000D03*
%TD*%
%TO.C,FID4*%
X88130000Y85590000D03*
%TD*%
%TO.C,FID4*%
X88130000Y41910000D03*
%TD*%
%TO.C,FID4*%
X36830000Y85590000D03*
%TD*%
D13*
%TO.C,ST4*%
X143240000Y84320000D03*
%TD*%
%TO.C,ST4*%
X143240000Y40640000D03*
%TD*%
%TO.C,ST4*%
X91940000Y84320000D03*
%TD*%
%TO.C,ST4*%
X91940000Y40640000D03*
%TD*%
%TO.C,ST4*%
X40640000Y84320000D03*
%TD*%
D45*
%TO.C,C13*%
X123415000Y60190000D03*
X124965000Y60190000D03*
%TD*%
%TO.C,C13*%
X123415000Y16510000D03*
X124965000Y16510000D03*
%TD*%
%TO.C,C13*%
X72115000Y60190000D03*
X73665000Y60190000D03*
%TD*%
%TO.C,C13*%
X72115000Y16510000D03*
X73665000Y16510000D03*
%TD*%
%TO.C,C13*%
X20815000Y60190000D03*
X22365000Y60190000D03*
%TD*%
D46*
%TO.C,R6*%
X111998000Y61650000D03*
X111998000Y60000000D03*
%TD*%
%TO.C,R6*%
X111998000Y17970000D03*
X111998000Y16320000D03*
%TD*%
%TO.C,R6*%
X60698000Y61650000D03*
X60698000Y60000000D03*
%TD*%
%TO.C,R6*%
X60698000Y17970000D03*
X60698000Y16320000D03*
%TD*%
%TO.C,R6*%
X9398000Y61650000D03*
X9398000Y60000000D03*
%TD*%
D34*
%TO.C,R5*%
X111998000Y51110000D03*
X111998000Y52760000D03*
%TD*%
%TO.C,R5*%
X111998000Y7430000D03*
X111998000Y9080000D03*
%TD*%
%TO.C,R5*%
X60698000Y51110000D03*
X60698000Y52760000D03*
%TD*%
%TO.C,R5*%
X60698000Y7430000D03*
X60698000Y9080000D03*
%TD*%
%TO.C,R5*%
X9398000Y51110000D03*
X9398000Y52760000D03*
%TD*%
%TO.C,R5*%
X9398000Y7430000D03*
X9398000Y9080000D03*
%TD*%
D46*
%TO.C,R6*%
X9398000Y17970000D03*
X9398000Y16320000D03*
%TD*%
D45*
%TO.C,C13*%
X20815000Y16510000D03*
X22365000Y16510000D03*
%TD*%
D13*
%TO.C,ST4*%
X40640000Y40640000D03*
%TD*%
D43*
%TO.C,FID4*%
X36830000Y41910000D03*
%TD*%
D44*
%TO.C,U3*%
X11110000Y26954100D03*
X10160000Y26954100D03*
X9210000Y26954100D03*
X9210000Y24353900D03*
X11110000Y24353900D03*
%TD*%
D26*
%TO.C,C11*%
X36335000Y29845000D03*
X34785000Y29845000D03*
%TD*%
D43*
%TO.C,FID1*%
X6350000Y1270000D03*
%TD*%
D26*
%TO.C,C8*%
X10935000Y30353000D03*
X9385000Y30353000D03*
%TD*%
D14*
%TO.C,D4*%
X37122000Y38466000D03*
X37122000Y39116000D03*
X37122000Y39766000D03*
X35522000Y39766000D03*
X35522000Y38466000D03*
%TD*%
D11*
%TO.C,J2*%
X34290000Y41910000D03*
X31750000Y41910000D03*
X29210000Y41910000D03*
X26670000Y41910000D03*
X24130000Y41910000D03*
X21590000Y41910000D03*
X19050000Y41910000D03*
X16510000Y41910000D03*
X13970000Y41910000D03*
%TD*%
D18*
%TO.C,C1*%
X13208000Y26429000D03*
X13208000Y24879000D03*
%TD*%
D41*
%TO.C,U2*%
X16910000Y33025000D03*
X16910000Y31755000D03*
X16910000Y30485000D03*
X16910000Y29215000D03*
X16910000Y27945000D03*
X16910000Y26675000D03*
X16910000Y25405000D03*
X16910000Y24135000D03*
X16910000Y22865000D03*
X16910000Y21595000D03*
X31710000Y21595000D03*
X31710000Y22865000D03*
X31710000Y24135000D03*
X31710000Y25405000D03*
X31710000Y26675000D03*
X31710000Y27945000D03*
X31710000Y29215000D03*
X31710000Y30485000D03*
X31710000Y31755000D03*
X31710000Y33025000D03*
D42*
X24830000Y28830000D03*
%TD*%
D40*
%TO.C,D6*%
X8859900Y13650000D03*
X8859900Y12700000D03*
X8859900Y11750000D03*
X11460100Y11750000D03*
X11460000Y12700000D03*
X11460100Y13650000D03*
%TD*%
D27*
%TO.C,D1*%
X4953000Y22867000D03*
X4953000Y20567000D03*
%TD*%
D18*
%TO.C,C3*%
X14859000Y26429000D03*
X14859000Y24879000D03*
%TD*%
D35*
%TO.C,U4*%
X21340000Y14200000D03*
D36*
X20340000Y13700000D03*
X20340000Y13200000D03*
X20340000Y12700000D03*
X20340000Y12200000D03*
X20340000Y11700000D03*
D37*
X21340000Y11200000D03*
X21840000Y11200000D03*
D38*
X22840000Y11700000D03*
X22840000Y12200000D03*
X22840000Y12700000D03*
X22840000Y13200000D03*
X22840000Y13700000D03*
D35*
X21840000Y14200000D03*
D39*
X21590000Y12700000D03*
%TD*%
D13*
%TO.C,ST3*%
X2540000Y40640000D03*
%TD*%
D18*
%TO.C,C7*%
X13970000Y9030000D03*
X13970000Y7480000D03*
%TD*%
D26*
%TO.C,C12*%
X10935000Y20955000D03*
X9385000Y20955000D03*
%TD*%
D18*
%TO.C,C6*%
X12319000Y9030000D03*
X12319000Y7480000D03*
%TD*%
D34*
%TO.C,R1*%
X6350000Y26480000D03*
X6350000Y28130000D03*
%TD*%
D31*
%TO.C,U1*%
X13912500Y13950000D03*
X13912500Y13450000D03*
X13912500Y12950000D03*
X13912500Y12450000D03*
X13912500Y11950000D03*
X13912500Y11450000D03*
D32*
X14625000Y10737500D03*
X15125000Y10737500D03*
X15625000Y10737500D03*
X16125000Y10737500D03*
X16625000Y10737500D03*
X17125000Y10737500D03*
D31*
X17837500Y11450000D03*
X17837500Y11950000D03*
X17837500Y12450000D03*
X17837500Y12950000D03*
X17837500Y13450000D03*
X17837500Y13950000D03*
D32*
X17125000Y14662500D03*
X16625000Y14662500D03*
X16125000Y14662500D03*
X15625000Y14662500D03*
X15125000Y14662500D03*
X14625000Y14662500D03*
D33*
X15875000Y12700000D03*
%TD*%
D26*
%TO.C,C10*%
X10935000Y22606000D03*
X9385000Y22606000D03*
%TD*%
D30*
%TO.C,D3*%
X14884500Y17145000D03*
X13309500Y17145000D03*
%TD*%
D28*
%TO.C,J1*%
X38255000Y31145000D03*
X38255000Y32395000D03*
X38255000Y33645000D03*
X38255000Y34895000D03*
D29*
X41455000Y29270000D03*
X41455000Y36770000D03*
%TD*%
D12*
%TO.C,R3*%
X34735000Y36195000D03*
X36385000Y36195000D03*
%TD*%
D27*
%TO.C,D2*%
X2667000Y22867000D03*
X2667000Y20567000D03*
%TD*%
D26*
%TO.C,C9*%
X10935000Y28702000D03*
X9385000Y28702000D03*
%TD*%
D19*
%TO.C,J3*%
X4905000Y15590000D03*
X4905000Y9810000D03*
D20*
X6010000Y13950000D03*
X6010000Y12950000D03*
D21*
X6010000Y12450000D03*
X6010000Y11450000D03*
X6010000Y10950000D03*
X6010000Y11950000D03*
D20*
X6010000Y13450000D03*
X6010000Y14450000D03*
D22*
X6010000Y15925000D03*
D23*
X6010000Y9475000D03*
D24*
X1255000Y17018000D03*
D25*
X5435000Y17018000D03*
X5435000Y8382000D03*
D24*
X1255000Y8382000D03*
D22*
X6010000Y15150000D03*
D23*
X6010000Y10250000D03*
%TD*%
D18*
%TO.C,C5*%
X15621000Y9030000D03*
X15621000Y7480000D03*
%TD*%
D17*
%TO.C,F1*%
X3810000Y25905000D03*
X3810000Y28705000D03*
%TD*%
D11*
%TO.C,J4*%
X34290000Y1270000D03*
X31750000Y1270000D03*
X29210000Y1270000D03*
X26670000Y1270000D03*
X24130000Y1270000D03*
X21590000Y1270000D03*
X19050000Y1270000D03*
X16510000Y1270000D03*
X13970000Y1270000D03*
%TD*%
D15*
%TO.C,C2*%
X13208000Y20942000D03*
X13208000Y22492000D03*
%TD*%
D13*
%TO.C,ST1*%
X2500000Y2500000D03*
%TD*%
D16*
%TO.C,D5*%
X11138000Y39766000D03*
X11138000Y39116000D03*
X11138000Y38466000D03*
X12738000Y38466000D03*
X12738000Y39766000D03*
%TD*%
D15*
%TO.C,C4*%
X14859000Y20955000D03*
X14859000Y22505000D03*
%TD*%
D14*
%TO.C,D7*%
X37122000Y3414000D03*
X37122000Y4064000D03*
X37122000Y4714000D03*
X35522000Y4714000D03*
X35522000Y3414000D03*
%TD*%
D12*
%TO.C,R4*%
X13272000Y18796000D03*
X14922000Y18796000D03*
%TD*%
D13*
%TO.C,ST2*%
X40640000Y2540000D03*
%TD*%
D12*
%TO.C,R2*%
X25210000Y12700000D03*
X26860000Y12700000D03*
%TD*%
D11*
%TO.C,JP1*%
X3810000Y31750000D03*
X6350000Y31750000D03*
%TD*%
M02*
